<svg width="164" height="47" viewBox="0 0 164 47" fill="none" xmlns="http://www.w3.org/2000/svg">
<g filter="url(#filter0_d_584_116)">
<path d="M8 0H156L149 15.5L156 31H8L15.5 15.5L8 0Z" fill="#A59073"/>
<path d="M52.028 20.168C51.364 20.168 50.748 20.064 50.18 19.856C49.62 19.64 49.132 19.336 48.716 18.944C48.308 18.552 47.988 18.092 47.756 17.564C47.524 17.028 47.408 16.44 47.408 15.8C47.408 15.16 47.524 14.576 47.756 14.048C47.988 13.512 48.308 13.048 48.716 12.656C49.132 12.264 49.62 11.964 50.18 11.756C50.748 11.54 51.364 11.432 52.028 11.432C52.804 11.432 53.496 11.568 54.104 11.84C54.72 12.112 55.232 12.504 55.64 13.016L54.128 14.384C53.856 14.064 53.556 13.82 53.228 13.652C52.908 13.484 52.548 13.4 52.148 13.4C51.804 13.4 51.488 13.456 51.2 13.568C50.912 13.68 50.664 13.844 50.456 14.06C50.256 14.268 50.096 14.52 49.976 14.816C49.864 15.112 49.808 15.44 49.808 15.8C49.808 16.16 49.864 16.488 49.976 16.784C50.096 17.08 50.256 17.336 50.456 17.552C50.664 17.76 50.912 17.92 51.2 18.032C51.488 18.144 51.804 18.2 52.148 18.2C52.548 18.2 52.908 18.116 53.228 17.948C53.556 17.78 53.856 17.536 54.128 17.216L55.64 18.584C55.232 19.088 54.72 19.48 54.104 19.76C53.496 20.032 52.804 20.168 52.028 20.168ZM58.4994 20V11.6H60.8754V18.116H64.8834V20H58.4994ZM66.6976 20L70.4056 11.6H72.7456L76.4656 20H73.9936L71.0896 12.764H72.0256L69.1216 20H66.6976ZM68.7256 18.368L69.3376 16.616H73.4416L74.0536 18.368H68.7256ZM78.9392 20V11.6H81.3152V20H78.9392ZM84.8056 20V11.6H86.7616L90.2416 17.312H89.2096L92.5936 11.6H94.5496L94.5736 20H92.3896L92.3656 14.924H92.7376L90.2056 19.172H89.1496L86.5456 14.924H87.0016V20H84.8056ZM100.239 14.852H104.139V16.628H100.239V14.852ZM100.407 18.164H104.799V20H98.0548V11.6H104.643V13.436H100.407V18.164ZM107.917 20V11.6H111.889C112.817 11.6 113.633 11.772 114.337 12.116C115.041 12.46 115.589 12.944 115.981 13.568C116.381 14.192 116.581 14.936 116.581 15.8C116.581 16.656 116.381 17.4 115.981 18.032C115.589 18.656 115.041 19.14 114.337 19.484C113.633 19.828 112.817 20 111.889 20H107.917ZM110.293 18.104H111.793C112.273 18.104 112.689 18.016 113.041 17.84C113.401 17.656 113.681 17.392 113.881 17.048C114.081 16.696 114.181 16.28 114.181 15.8C114.181 15.312 114.081 14.896 113.881 14.552C113.681 14.208 113.401 13.948 113.041 13.772C112.689 13.588 112.273 13.496 111.793 13.496H110.293V18.104Z" fill="#21222A"/>
</g>
<defs>
<filter id="filter0_d_584_116" x="0" y="0" width="164" height="47" filterUnits="userSpaceOnUse" color-interpolation-filters="sRGB">
<feFlood flood-opacity="0" result="BackgroundImageFix"/>
<feColorMatrix in="SourceAlpha" type="matrix" values="0 0 0 0 0 0 0 0 0 0 0 0 0 0 0 0 0 0 127 0" result="hardAlpha"/>
<feOffset dy="8"/>
<feGaussianBlur stdDeviation="4"/>
<feComposite in2="hardAlpha" operator="out"/>
<feColorMatrix type="matrix" values="0 0 0 0 0 0 0 0 0 0 0 0 0 0 0 0 0 0 0.25 0"/>
<feBlend mode="normal" in2="BackgroundImageFix" result="effect1_dropShadow_584_116"/>
<feBlend mode="normal" in="SourceGraphic" in2="effect1_dropShadow_584_116" result="shape"/>
</filter>
</defs>
</svg>
