<svg width="164" height="47" viewBox="0 0 164 47" fill="none" xmlns="http://www.w3.org/2000/svg">
<g filter="url(#filter0_d_503_162)">
<path d="M8 0H156L149 15.5L156 31H8L15.5 15.5L8 0Z" fill="#A59073"/>
<path d="M28.832 20L32.54 11.6H34.88L38.6 20H36.128L33.224 12.764H34.16L31.256 20H28.832ZM30.86 18.368L31.472 16.616H35.576L36.188 18.368H30.86ZM41.0736 20V11.6H43.4496V18.116H47.4576V20H41.0736ZM50.1978 20V11.6H52.5738V18.116H56.5818V20H50.1978ZM68.8022 20.168C68.1382 20.168 67.5222 20.064 66.9542 19.856C66.3942 19.64 65.9062 19.336 65.4902 18.944C65.0822 18.552 64.7622 18.092 64.5302 17.564C64.2982 17.028 64.1822 16.44 64.1822 15.8C64.1822 15.16 64.2982 14.576 64.5302 14.048C64.7622 13.512 65.0822 13.048 65.4902 12.656C65.9062 12.264 66.3942 11.964 66.9542 11.756C67.5222 11.54 68.1382 11.432 68.8022 11.432C69.5782 11.432 70.2702 11.568 70.8782 11.84C71.4942 12.112 72.0062 12.504 72.4142 13.016L70.9022 14.384C70.6302 14.064 70.3302 13.82 70.0022 13.652C69.6822 13.484 69.3222 13.4 68.9222 13.4C68.5782 13.4 68.2622 13.456 67.9742 13.568C67.6862 13.68 67.4382 13.844 67.2302 14.06C67.0302 14.268 66.8702 14.52 66.7502 14.816C66.6382 15.112 66.5822 15.44 66.5822 15.8C66.5822 16.16 66.6382 16.488 66.7502 16.784C66.8702 17.08 67.0302 17.336 67.2302 17.552C67.4382 17.76 67.6862 17.92 67.9742 18.032C68.2622 18.144 68.5782 18.2 68.9222 18.2C69.3222 18.2 69.6822 18.116 70.0022 17.948C70.3302 17.78 70.6302 17.536 70.9022 17.216L72.4142 18.584C72.0062 19.088 71.4942 19.48 70.8782 19.76C70.2702 20.032 69.5782 20.168 68.8022 20.168ZM75.2736 20V11.6H77.6496V18.116H81.6576V20H75.2736ZM83.4718 20L87.1798 11.6H89.5198L93.2398 20H90.7678L87.8638 12.764H88.7998L85.8958 20H83.4718ZM85.4998 18.368L86.1118 16.616H90.2158L90.8278 18.368H85.4998ZM95.7134 20V11.6H98.0894V20H95.7134ZM101.58 20V11.6H103.536L107.016 17.312H105.984L109.368 11.6H111.324L111.348 20H109.164L109.14 14.924H109.512L106.98 19.172H105.924L103.32 14.924H103.776V20H101.58ZM117.013 14.852H120.913V16.628H117.013V14.852ZM117.181 18.164H121.573V20H114.829V11.6H121.417V13.436H117.181V18.164ZM124.692 20V11.6H128.664C129.592 11.6 130.408 11.772 131.112 12.116C131.816 12.46 132.364 12.944 132.756 13.568C133.156 14.192 133.356 14.936 133.356 15.8C133.356 16.656 133.156 17.4 132.756 18.032C132.364 18.656 131.816 19.14 131.112 19.484C130.408 19.828 129.592 20 128.664 20H124.692ZM127.068 18.104H128.568C129.048 18.104 129.464 18.016 129.816 17.84C130.176 17.656 130.456 17.392 130.656 17.048C130.856 16.696 130.956 16.28 130.956 15.8C130.956 15.312 130.856 14.896 130.656 14.552C130.456 14.208 130.176 13.948 129.816 13.772C129.464 13.588 129.048 13.496 128.568 13.496H127.068V18.104Z" fill="#21222A"/>
</g>
<defs>
<filter id="filter0_d_503_162" x="0" y="0" width="164" height="47" filterUnits="userSpaceOnUse" color-interpolation-filters="sRGB">
<feFlood flood-opacity="0" result="BackgroundImageFix"/>
<feColorMatrix in="SourceAlpha" type="matrix" values="0 0 0 0 0 0 0 0 0 0 0 0 0 0 0 0 0 0 127 0" result="hardAlpha"/>
<feOffset dy="8"/>
<feGaussianBlur stdDeviation="4"/>
<feComposite in2="hardAlpha" operator="out"/>
<feColorMatrix type="matrix" values="0 0 0 0 0 0 0 0 0 0 0 0 0 0 0 0 0 0 0.25 0"/>
<feBlend mode="normal" in2="BackgroundImageFix" result="effect1_dropShadow_503_162"/>
<feBlend mode="normal" in="SourceGraphic" in2="effect1_dropShadow_503_162" result="shape"/>
</filter>
</defs>
</svg>
