<svg width="574" height="103" viewBox="0 0 574 103" fill="none" xmlns="http://www.w3.org/2000/svg">
<g clip-path="url(#clip0_303_11082)">
<path d="M358.071 88.7079L352.516 98.3835C351.109 100.837 348.495 102.355 345.68 102.355H227.722C224.894 102.355 222.293 100.837 220.886 98.3835L215.331 88.7079H358.071Z" stroke="#7E6F5D" stroke-linejoin="round"/>
<path d="M233.276 88.708C231.064 86.5072 229.707 83.4338 229.707 80.0316C229.707 73.5685 234.734 68.2438 241.08 67.839C241.343 67.7885 241.607 67.7885 241.884 67.7885C244.673 67.7885 247.237 68.7244 249.285 70.3307C250.14 70.9757 250.906 71.7725 251.547 72.6326C253.118 74.6942 254.048 77.2617 254.048 80.0316C254.048 82.1437 253.52 84.1294 252.59 85.8496C252.025 86.8993 251.308 87.8606 250.467 88.6953" stroke="#7E6F5D" stroke-miterlimit="10"/>
<path d="M251.56 72.6326C253.131 74.6942 254.06 77.2617 254.06 80.0316C254.06 82.1437 253.533 84.1294 252.603 85.8496" stroke="#7E6F5D" stroke-miterlimit="10"/>
<path d="M268.273 85.1413C266.539 82.2702 265.986 78.6909 267.041 75.2254C267.33 74.2894 267.707 73.4041 268.185 72.5946" stroke="#7E6F5D" stroke-miterlimit="10"/>
<path d="M249.298 70.3307C250.278 68.5094 251.723 66.979 253.445 65.8533C253.972 65.5118 254.488 65.2336 255.066 64.968C256.586 64.2976 258.258 63.9182 260.017 63.9182C262.09 63.9182 264.038 64.4494 265.747 65.3601V65.3854C267.67 66.3972 269.291 67.9529 270.409 69.8121" stroke="#7E6F5D" stroke-miterlimit="10"/>
<path d="M241.08 67.839C240.979 67.3584 240.941 66.8525 240.941 66.3592C240.941 62.4005 244.133 59.2006 248.079 59.2006C249.7 59.2006 251.17 59.7571 252.364 60.6677" stroke="#7E6F5D" stroke-miterlimit="10"/>
<path d="M267.343 48.9938C261.135 47.514 254.777 51.1059 252.892 57.3287C252.552 58.4543 252.389 59.5547 252.364 60.6551C252.314 62.4763 252.703 64.247 253.432 65.8533" stroke="#7E6F5D" stroke-miterlimit="10"/>
<path d="M285.853 88.7079C287.285 87.6582 288.467 86.2922 289.346 84.6606C289.723 83.9397 290.063 83.1935 290.301 82.384C291.608 78.0964 290.44 73.6191 287.637 70.5204C286.205 68.9647 284.383 67.7378 282.209 67.0675C281.731 66.9284 281.254 66.8019 280.776 66.726H280.751C278.778 66.3719 276.818 66.511 274.996 67.1307C273.287 67.6619 271.716 68.5726 270.396 69.7868C269.806 70.3433 269.253 70.963 268.75 71.6587C268.537 71.9496 268.348 72.2531 268.16 72.5693C267.682 73.3788 267.305 74.2641 267.016 75.2001C265.973 78.6782 266.514 82.2449 268.248 85.116C269.052 86.4819 270.158 87.7088 271.49 88.6826" stroke="#7E6F5D" stroke-miterlimit="10"/>
<path d="M302.679 75.8325H302.704C302.817 75.3898 302.93 74.9598 303.006 74.5171C303.458 72.0255 303.069 69.5085 302.026 67.3458C301.862 67.0043 301.686 66.6501 301.473 66.3339V66.3086C300.027 63.9056 297.766 62.0463 294.9 61.1736C293.154 60.6424 291.369 60.5286 289.673 60.8068C288.366 60.9966 287.135 61.4013 285.991 62.0463C283.993 63.0835 282.322 64.715 281.228 66.8019H281.203" stroke="#7E6F5D" stroke-miterlimit="10"/>
<path d="M310.281 62.6154C312.204 60.1997 314.994 58.6187 318.035 58.2014C319.719 57.9357 321.516 58.0622 323.275 58.5808C329.696 60.5412 333.315 67.3963 331.368 73.8594C331.267 74.1503 331.179 74.4538 331.053 74.7194" stroke="#7E6F5D" stroke-miterlimit="10"/>
<path d="M313.059 80.5374C312.87 80.4362 312.707 80.3224 312.531 80.1833" stroke="#7E6F5D" stroke-miterlimit="10"/>
<path d="M309.276 76.5408C309.226 76.4649 309.176 76.4016 309.163 76.3257" stroke="#7E6F5D" stroke-miterlimit="10"/>
<path d="M284.91 53.4964C284.961 53.3319 285.011 53.1422 285.049 52.9652C286.996 46.5021 293.807 42.8595 300.229 44.82C303.722 45.895 306.411 48.4119 307.793 51.5486" stroke="#7E6F5D" stroke-miterlimit="10"/>
<path d="M275.008 67.1434C276.843 66.5237 278.791 66.3719 280.764 66.7387" stroke="#7E6F5D" stroke-miterlimit="10"/>
<path d="M269.265 72.2025C269.102 72.0128 268.926 71.8484 268.763 71.6713" stroke="#7E6F5D" stroke-miterlimit="10"/>
<path d="M265.747 65.3727V65.3474C265.433 63.5767 265.558 61.6795 266.099 59.8329C266.74 57.7713 267.833 56.0007 269.291 54.6094C270.359 53.5596 271.653 52.7122 273.023 52.1431C275.523 51.068 278.401 50.8277 281.228 51.6624C281.254 51.6624 281.279 51.6877 281.304 51.6877C282.636 52.0925 283.855 52.7122 284.898 53.4837C287.26 55.2038 288.894 57.7208 289.56 60.5033" stroke="#7E6F5D" stroke-miterlimit="10"/>
<path d="M269.291 54.6221C267.883 53.1549 267.129 51.106 267.343 48.9938C267.368 48.5132 267.456 48.0325 267.607 47.5519C268.75 43.7449 272.721 41.6074 276.504 42.7837C280.236 43.9346 282.359 47.9061 281.241 51.6751" stroke="#7E6F5D" stroke-miterlimit="10"/>
<path d="M302.013 88.7079C299.889 87.342 298.633 84.9009 298.771 82.3587C298.771 81.7643 298.871 81.1572 299.06 80.588C299.701 78.4758 301.196 76.9201 303.081 76.136H303.106C303.584 75.8957 304.061 75.7565 304.602 75.6554C304.602 75.6554 304.61 75.6554 304.627 75.6554C305.695 75.4403 306.838 75.4909 307.957 75.8451C308.384 75.9589 308.761 76.136 309.151 76.3257C309.251 76.3763 309.339 76.4269 309.44 76.5154C310.897 77.3249 311.99 78.6529 312.531 80.1833C312.694 80.5627 312.795 80.9295 312.87 81.3089V81.3342C313.059 82.2449 313.059 83.2061 312.845 84.1421C312.82 84.3571 312.77 84.5721 312.707 84.7871C312.179 86.4819 311.111 87.8479 309.703 88.7206" stroke="#7E6F5D" stroke-miterlimit="10"/>
<path d="M348.885 88.708C349.312 88.0882 349.651 87.3926 349.89 86.6211C351.034 82.8394 348.91 78.8174 345.153 77.6664C342.677 76.8949 340.101 77.5652 338.291 79.2474C337.362 80.0569 336.645 81.1446 336.243 82.4346C335.741 84.0662 335.866 85.7104 336.457 87.1776C336.645 87.7341 336.934 88.2527 337.286 88.708" stroke="#7E6F5D" stroke-miterlimit="10"/>
<path d="M304.614 75.6554C304.614 75.6554 304.614 75.68 304.639 75.6554" stroke="#7E6F5D" stroke-miterlimit="10"/>
<path d="M301.824 66.258V66.2328C302.629 64.6012 304.011 63.387 305.657 62.7799C306.21 62.5649 306.776 62.4258 307.366 62.3752C308.296 62.236 309.289 62.2993 310.269 62.6155C311.551 62.9949 312.644 63.7411 313.461 64.6771C315.107 66.4731 315.773 69.0659 315.006 71.5575C314.202 74.2135 311.978 76.0601 309.44 76.5154C309.389 76.5407 309.326 76.5407 309.276 76.5407" stroke="#7E6F5D" stroke-miterlimit="10"/>
<path d="M336.457 87.1776C335.69 87.8985 334.786 88.4044 333.818 88.7079" stroke="#7E6F5D" stroke-miterlimit="10"/>
<path d="M338.291 79.2474C337.55 77.2869 335.929 75.6807 333.768 75.0103C332.863 74.7194 331.933 74.6562 331.053 74.7447C328.716 74.9345 326.605 76.3004 325.461 78.4126" stroke="#7E6F5D" stroke-miterlimit="10"/>
<path d="M318.035 58.214C318.148 55.0521 316.15 52.1051 313.008 51.1186C311.199 50.5621 309.364 50.7644 307.793 51.5486C306.084 52.3834 304.727 53.9264 304.099 55.8868C303.332 58.3784 303.998 60.9712 305.645 62.7925" stroke="#7E6F5D" stroke-miterlimit="10"/>
<path d="M323.803 88.7079C324.733 88.1135 325.512 87.2408 326.065 86.2163C326.328 85.8116 326.517 85.3563 326.655 84.8756C327.108 83.3706 327.032 81.8149 326.555 80.4236C326.291 79.7027 325.939 79.0071 325.461 78.4126C324.607 77.2617 323.388 76.3763 321.918 75.921C318.211 74.7953 314.252 76.8569 313.059 80.5501C313.033 80.6007 313.033 80.6513 313.008 80.6892C312.933 80.9042 312.895 81.1192 312.87 81.309V81.3343" stroke="#7E6F5D" stroke-miterlimit="10"/>
<path d="M334.396 75.3645C336.545 76.7305 339.234 77.2111 341.848 76.3637C344.499 75.5036 346.447 73.5053 347.389 71.0769C346.108 70.2295 344.612 69.7236 343.067 69.6224C343.557 68.2691 343.733 66.8146 343.569 65.398C342.074 65.2715 340.541 65.5245 339.146 66.1442C339.045 64.3735 338.417 62.6914 337.399 61.3001C335.049 62.3878 333.177 64.4621 332.486 67.1814C331.795 69.888 332.448 72.582 333.956 74.6689L334.409 75.3645H334.396Z" stroke="#7E6F5D" stroke-miterlimit="10"/>
<path d="M250.869 57.784C252.904 56.2536 254.312 53.9011 254.463 51.1439C254.626 48.3487 253.457 45.7939 251.547 44.0358C250.303 44.9465 249.298 46.1607 248.644 47.5772C247.564 46.6286 246.282 45.9456 244.9 45.5915C244.246 46.9575 243.932 48.4752 244.007 50.0056C242.336 49.4744 240.552 49.4491 238.893 49.9171C239.069 52.5099 240.313 55.0141 242.588 56.6457C244.849 58.2646 247.589 58.6188 250.064 57.9484L250.869 57.7714V57.784Z" stroke="#7E6F5D" stroke-miterlimit="10"/>
<path d="M229.192 83.4591C229.858 80.9928 229.519 78.2609 227.96 75.9969C226.365 73.695 223.889 72.4176 221.313 72.2152C220.886 73.695 220.848 75.2886 221.2 76.8064C219.767 76.7305 218.335 76.9834 217.04 77.5652C217.355 79.045 218.046 80.4363 219.039 81.5999C217.392 82.2196 215.972 83.3074 214.954 84.6986C216.676 86.6337 219.202 87.8353 221.979 87.7088C224.744 87.5823 227.119 86.1658 228.664 84.0915L229.192 83.4591Z" stroke="#7E6F5D" stroke-miterlimit="10"/>
<path d="M218.096 94.1971H296.333" stroke="#7E6F5D" stroke-linejoin="round"/>
<path d="M352.516 98.3835H329.948" stroke="#7E6F5D" stroke-linejoin="round"/>
<path d="M354.54 94.7662H339.598" stroke="#7E6F5D" stroke-linejoin="round"/>
<path d="M289.547 72.7338H283.578" stroke="#7E6F5D" stroke-linejoin="round"/>
<path d="M290.339 76.174H286.117" stroke="#7E6F5D" stroke-linejoin="round"/>
<path d="M290.339 81.8022H286.117" stroke="#7E6F5D" stroke-linejoin="round"/>
<path d="M290.314 78.9691H282.045" stroke="#7E6F5D" stroke-linejoin="round"/>
<path d="M307.806 51.5486H297.539" stroke="#7E6F5D" stroke-linejoin="round"/>
<path d="M304.375 54.5209H301.359" stroke="#7E6F5D" stroke-linejoin="round"/>
<path d="M303.37 58.3658H299.55" stroke="#7E6F5D" stroke-linejoin="round"/>
<path d="M303.973 60.9965H300.555" stroke="#7E6F5D" stroke-linejoin="round"/>
<path d="M330.312 64.6392H322.471" stroke="#7E6F5D" stroke-linejoin="round"/>
<path d="M331.518 67.4722H326.693" stroke="#7E6F5D" stroke-linejoin="round"/>
<path d="M331.581 70.28H326.09" stroke="#7E6F5D" stroke-miterlimit="10"/>
<path d="M252.653 84.9136H248.871" stroke="#7E6F5D" stroke-miterlimit="10"/>
<path d="M253.558 82.0299H251.158" stroke="#7E6F5D" stroke-miterlimit="10"/>
<path d="M253.797 78.3494H249.336" stroke="#7E6F5D" stroke-miterlimit="10"/>
<path d="M252.414 74.4412H246.584" stroke="#7E6F5D" stroke-miterlimit="10"/>
<path d="M334.635 74.8459C335.829 75.6048 337.311 75.8578 338.756 75.4024C340.227 74.9345 341.295 73.8215 341.823 72.4808C341.106 72.0128 340.29 71.7346 339.435 71.6713C339.711 70.9251 339.799 70.1156 339.711 69.3315C338.882 69.2556 338.04 69.3947 337.274 69.7362C337.211 68.7623 336.872 67.8264 336.306 67.0549C335.012 67.662 333.969 68.8003 333.592 70.3054C333.215 71.7978 333.567 73.2903 334.409 74.4412L334.66 74.8206L334.635 74.8459Z" stroke="#7E6F5D" stroke-miterlimit="10"/>
<path d="M351.549 26.6324V30.1991C354.54 32.6022 356.286 36.2321 356.286 40.0897V50.7644C356.286 59.5926 361.614 67.1687 369.217 70.4065C371.63 71.431 373.225 73.7835 373.225 76.4143V90.7189C373.225 93.6659 371.026 96.1449 368.124 96.4864L360.119 97.4223C357.782 97.7006 356.022 99.6863 356.022 102.051H398.898C398.898 99.6863 397.139 97.6879 394.802 97.4223L386.797 96.4864C383.894 96.1449 381.695 93.6659 381.695 90.7189V76.4143C381.695 73.7709 383.291 71.431 385.704 70.4065C393.306 67.1687 398.634 59.5926 398.634 50.7644V40.0897C398.634 36.2447 400.381 32.6022 403.372 30.1991V26.6324H351.536H351.549Z" stroke="#7E6F5D" stroke-miterlimit="10"/>
<path d="M385.704 70.3939C393.306 67.156 398.634 59.58 398.634 50.7518V40.077C398.634 36.2321 400.381 32.5895 403.372 30.1864V26.6324H396.31V30.1991C393.319 32.6022 391.572 36.2321 391.572 40.0897V50.7644C391.572 59.5926 386.244 67.1687 378.641 70.4065" stroke="#7E6F5D" stroke-miterlimit="10"/>
<path d="M403.372 30.1991H376.53" stroke="#7E6F5D" stroke-miterlimit="10"/>
<path d="M398.911 35.9791H393.13" stroke="#7E6F5D" stroke-miterlimit="10"/>
<path d="M397.993 41.1901H392.213" stroke="#7E6F5D" stroke-miterlimit="10"/>
<path d="M397.993 46.2491H392.213" stroke="#7E6F5D" stroke-miterlimit="10"/>
<path d="M397.993 51.0048H392.213" stroke="#7E6F5D" stroke-miterlimit="10"/>
<path d="M397.993 56.5192H390.994" stroke="#7E6F5D" stroke-miterlimit="10"/>
<path d="M395.706 61.7301H388.707" stroke="#7E6F5D" stroke-miterlimit="10"/>
<path d="M391.446 66.6248H384.447" stroke="#7E6F5D" stroke-miterlimit="10"/>
<path d="M382.776 94.3615H376.983" stroke="#7E6F5D" stroke-miterlimit="10"/>
<path d="M169.628 26.6324V30.1991C172.619 32.6022 174.366 36.2321 174.366 40.0897V50.7644C174.366 59.5926 179.694 67.1687 187.296 70.4065C189.709 71.431 191.305 73.7835 191.305 76.4143V90.7189C191.305 93.6659 189.106 96.1449 186.203 96.4864L178.198 97.4223C175.861 97.7006 174.102 99.6863 174.102 102.051H216.978C216.978 99.6863 215.218 97.6879 212.881 97.4223L204.876 96.4864C201.974 96.1449 199.775 93.6659 199.775 90.7189V76.4143C199.775 73.7709 201.37 71.431 203.783 70.4065C211.386 67.1687 216.714 59.5926 216.714 50.7644V40.0897C216.714 36.2447 218.46 32.6022 221.451 30.1991V26.6324H169.628Z" stroke="#7E6F5D" stroke-miterlimit="10"/>
<path d="M203.783 70.3939C211.386 67.156 216.714 59.58 216.714 50.7518V40.077C216.714 36.2321 218.46 32.5895 221.451 30.1864V26.6324H214.389V30.1991C211.398 32.6022 209.652 36.2321 209.652 40.0897V50.7644C209.652 59.5926 204.324 67.1687 196.721 70.4065" stroke="#7E6F5D" stroke-miterlimit="10"/>
<path d="M221.464 30.1991H194.61" stroke="#7E6F5D" stroke-miterlimit="10"/>
<path d="M216.99 35.9791H211.21" stroke="#7E6F5D" stroke-miterlimit="10"/>
<path d="M216.085 41.1901H210.292" stroke="#7E6F5D" stroke-miterlimit="10"/>
<path d="M216.085 46.2491H210.292" stroke="#7E6F5D" stroke-miterlimit="10"/>
<path d="M216.085 51.0048H210.292" stroke="#7E6F5D" stroke-miterlimit="10"/>
<path d="M216.085 56.5192H209.074" stroke="#7E6F5D" stroke-miterlimit="10"/>
<path d="M213.798 61.7301H206.799" stroke="#7E6F5D" stroke-miterlimit="10"/>
<path d="M209.538 66.6248H202.527" stroke="#7E6F5D" stroke-miterlimit="10"/>
<path d="M200.855 94.3615H195.075" stroke="#7E6F5D" stroke-miterlimit="10"/>
<g clip-path="url(#clip1_303_11082)">
<path d="M144.29 98.85H0" stroke="#665C51" stroke-miterlimit="10"/>
<path d="M156.59 17.2L130.87 0.419983" stroke="#665C51" stroke-miterlimit="10"/>
<path d="M165.54 73.12L79.42 64.18" stroke="#665C51" stroke-miterlimit="10"/>
<path d="M76.63 22.86L59.28 18.32" stroke="#665C51" stroke-miterlimit="10"/>
<path d="M153.24 42.92L93.15 27.19" stroke="#665C51" stroke-miterlimit="10"/>
<path d="M429.52 98.85H573.81" stroke="#665C51" stroke-miterlimit="10"/>
<path d="M417.21 17.2L442.94 0.419983" stroke="#665C51" stroke-miterlimit="10"/>
<path d="M409.38 73.12L494.39 64.18" stroke="#665C51" stroke-miterlimit="10"/>
<path d="M497.18 22.86L514.52 18.32" stroke="#665C51" stroke-miterlimit="10"/>
<path d="M420.57 42.92L480.65 27.19" stroke="#665C51" stroke-miterlimit="10"/>
</g>
</g>
<defs>
<clipPath id="clip0_303_11082">
<rect width="574" height="103" fill="white"/>
</clipPath>
<clipPath id="clip1_303_11082">
<rect width="574" height="100" fill="white"/>
</clipPath>
</defs>
</svg>
