<svg width="176" height="47" viewBox="0 0 176 47" fill="none" xmlns="http://www.w3.org/2000/svg">
<g filter="url(#filter0_d_596_116)">
<path d="M8 0H168L160.432 15.5L168 31H8L16.1081 15.5L8 0Z" fill="#FF6746"/>
<path d="M56.024 14.852H59.924V16.628H56.024V14.852ZM56.192 18.164H60.584V20H53.84V11.6H60.428V13.436H56.192V18.164ZM62.7682 20L66.4402 14.9L66.4282 16.592L62.9002 11.6H65.5762L67.8322 14.852L66.6922 14.864L68.9122 11.6H71.4802L67.9522 16.496V14.816L71.6722 20H68.9362L66.6442 16.58H67.7362L65.4802 20H62.7682ZM74.022 20V11.6H77.862C78.63 11.6 79.29 11.724 79.842 11.972C80.402 12.22 80.834 12.58 81.138 13.052C81.442 13.516 81.594 14.068 81.594 14.708C81.594 15.34 81.442 15.888 81.138 16.352C80.834 16.816 80.402 17.176 79.842 17.432C79.29 17.68 78.63 17.804 77.862 17.804H75.342L76.398 16.772V20H74.022ZM76.398 17.024L75.342 15.932H77.718C78.214 15.932 78.582 15.824 78.822 15.608C79.07 15.392 79.194 15.092 79.194 14.708C79.194 14.316 79.07 14.012 78.822 13.796C78.582 13.58 78.214 13.472 77.718 13.472H75.342L76.398 12.38V17.024ZM84.5525 20V11.6H86.9285V20H84.5525ZM90.4189 20V11.6H94.2589C95.0269 11.6 95.6869 11.724 96.2389 11.972C96.7989 12.22 97.2309 12.58 97.5349 13.052C97.8389 13.516 97.9909 14.068 97.9909 14.708C97.9909 15.34 97.8389 15.888 97.5349 16.352C97.2309 16.808 96.7989 17.16 96.2389 17.408C95.6869 17.648 95.0269 17.768 94.2589 17.768H91.7389L92.7949 16.772V20H90.4189ZM95.6149 20L93.5269 16.94H96.0589L98.1589 20H95.6149ZM92.7949 17.024L91.7389 15.932H94.1149C94.6109 15.932 94.9789 15.824 95.2189 15.608C95.4669 15.392 95.5909 15.092 95.5909 14.708C95.5909 14.316 95.4669 14.012 95.2189 13.796C94.9789 13.58 94.6109 13.472 94.1149 13.472H91.7389L92.7949 12.38V17.024ZM103.286 14.852H107.186V16.628H103.286V14.852ZM103.454 18.164H107.846V20H101.102V11.6H107.69V13.436H103.454V18.164ZM110.964 20V11.6H114.936C115.864 11.6 116.68 11.772 117.384 12.116C118.088 12.46 118.636 12.944 119.028 13.568C119.428 14.192 119.628 14.936 119.628 15.8C119.628 16.656 119.428 17.4 119.028 18.032C118.636 18.656 118.088 19.14 117.384 19.484C116.68 19.828 115.864 20 114.936 20H110.964ZM113.34 18.104H114.84C115.32 18.104 115.736 18.016 116.088 17.84C116.448 17.656 116.728 17.392 116.928 17.048C117.128 16.696 117.228 16.28 117.228 15.8C117.228 15.312 117.128 14.896 116.928 14.552C116.728 14.208 116.448 13.948 116.088 13.772C115.736 13.588 115.32 13.496 114.84 13.496H113.34V18.104Z" fill="#21222A"/>
</g>
<defs>
<filter id="filter0_d_596_116" x="0" y="0" width="176" height="47" filterUnits="userSpaceOnUse" color-interpolation-filters="sRGB">
<feFlood flood-opacity="0" result="BackgroundImageFix"/>
<feColorMatrix in="SourceAlpha" type="matrix" values="0 0 0 0 0 0 0 0 0 0 0 0 0 0 0 0 0 0 127 0" result="hardAlpha"/>
<feOffset dy="8"/>
<feGaussianBlur stdDeviation="4"/>
<feComposite in2="hardAlpha" operator="out"/>
<feColorMatrix type="matrix" values="0 0 0 0 0 0 0 0 0 0 0 0 0 0 0 0 0 0 0.25 0"/>
<feBlend mode="normal" in2="BackgroundImageFix" result="effect1_dropShadow_596_116"/>
<feBlend mode="normal" in="SourceGraphic" in2="effect1_dropShadow_596_116" result="shape"/>
</filter>
</defs>
</svg>
