<svg width="100" height="100" viewBox="0 0 100 100" fill="none" xmlns="http://www.w3.org/2000/svg">
<rect width="100" height="100" rx="50" fill="black" fill-opacity="0.2"/>
<path d="M32.0754 28.3019V30.7111C34.0354 32.3343 35.1801 34.7862 35.1801 37.3919V44.6024C35.1801 50.5656 38.6719 55.683 43.6542 57.8701C45.2354 58.5621 46.2813 60.1511 46.2813 61.9281V71.5905C46.2813 73.5811 44.8401 75.2556 42.9378 75.4862L37.6919 76.1184C36.1601 76.3064 35.0072 77.6477 35.0072 79.2453H63.1059C63.1059 77.6477 61.953 76.2979 60.4212 76.1184L55.1754 75.4862C53.273 75.2556 51.8319 73.5811 51.8319 71.5905V61.9281C51.8319 60.1426 52.8777 58.5621 54.4589 57.8701C59.4412 55.683 62.933 50.5656 62.933 44.6024V37.3919C62.933 34.7947 64.0777 32.3343 66.0377 30.7111V28.3019H32.0754Z" fill="#7E6F5D"/>
<rect x="0.5" y="0.5" width="99" height="99" rx="49.5" stroke="white" stroke-opacity="0.2"/>
</svg>
