<svg width="176" height="47" viewBox="0 0 176 47" fill="none" xmlns="http://www.w3.org/2000/svg">
<g filter="url(#filter0_d_503_166)">
<path d="M8 0H168L160.432 15.5L168 31H8L16.1081 15.5L8 0Z" fill="#D9D9D9"/>
<path d="M34.84 20V11.6H36.796L41.428 17.192H40.504V11.6H42.832V20H40.876L36.244 14.408H37.168V20H34.84ZM50.544 20.168C49.872 20.168 49.252 20.06 48.684 19.844C48.116 19.628 47.62 19.324 47.196 18.932C46.78 18.532 46.456 18.068 46.224 17.54C45.992 17.012 45.876 16.432 45.876 15.8C45.876 15.168 45.992 14.588 46.224 14.06C46.456 13.532 46.78 13.072 47.196 12.68C47.62 12.28 48.116 11.972 48.684 11.756C49.252 11.54 49.872 11.432 50.544 11.432C51.224 11.432 51.844 11.54 52.404 11.756C52.972 11.972 53.464 12.28 53.88 12.68C54.296 13.072 54.62 13.532 54.852 14.06C55.092 14.588 55.212 15.168 55.212 15.8C55.212 16.432 55.092 17.016 54.852 17.552C54.62 18.08 54.296 18.54 53.88 18.932C53.464 19.324 52.972 19.628 52.404 19.844C51.844 20.06 51.224 20.168 50.544 20.168ZM50.544 18.2C50.864 18.2 51.16 18.144 51.432 18.032C51.712 17.92 51.952 17.76 52.152 17.552C52.36 17.336 52.52 17.08 52.632 16.784C52.752 16.488 52.812 16.16 52.812 15.8C52.812 15.432 52.752 15.104 52.632 14.816C52.52 14.52 52.36 14.268 52.152 14.06C51.952 13.844 51.712 13.68 51.432 13.568C51.16 13.456 50.864 13.4 50.544 13.4C50.224 13.4 49.924 13.456 49.644 13.568C49.372 13.68 49.132 13.844 48.924 14.06C48.724 14.268 48.564 14.52 48.444 14.816C48.332 15.104 48.276 15.432 48.276 15.8C48.276 16.16 48.332 16.488 48.444 16.784C48.564 17.08 48.724 17.336 48.924 17.552C49.132 17.76 49.372 17.92 49.644 18.032C49.924 18.144 50.224 18.2 50.544 18.2ZM59.9272 20V13.484H57.3472V11.6H64.8712V13.484H62.3032V20H59.9272ZM75.8006 20.168C75.1126 20.168 74.4486 20.084 73.8086 19.916C73.1766 19.74 72.6606 19.516 72.2606 19.244L73.0406 17.492C73.4166 17.732 73.8486 17.932 74.3366 18.092C74.8326 18.244 75.3246 18.32 75.8126 18.32C76.1406 18.32 76.4046 18.292 76.6046 18.236C76.8046 18.172 76.9486 18.092 77.0366 17.996C77.1326 17.892 77.1806 17.772 77.1806 17.636C77.1806 17.444 77.0926 17.292 76.9166 17.18C76.7406 17.068 76.5126 16.976 76.2326 16.904C75.9526 16.832 75.6406 16.76 75.2966 16.688C74.9606 16.616 74.6206 16.524 74.2766 16.412C73.9406 16.3 73.6326 16.156 73.3526 15.98C73.0726 15.796 72.8446 15.56 72.6686 15.272C72.4926 14.976 72.4046 14.604 72.4046 14.156C72.4046 13.652 72.5406 13.196 72.8126 12.788C73.0926 12.38 73.5086 12.052 74.0606 11.804C74.6126 11.556 75.3006 11.432 76.1246 11.432C76.6766 11.432 77.2166 11.496 77.7446 11.624C78.2806 11.744 78.7566 11.924 79.1726 12.164L78.4406 13.928C78.0406 13.712 77.6446 13.552 77.2526 13.448C76.8606 13.336 76.4806 13.28 76.1126 13.28C75.7846 13.28 75.5206 13.316 75.3206 13.388C75.1206 13.452 74.9766 13.54 74.8886 13.652C74.8006 13.764 74.7566 13.892 74.7566 14.036C74.7566 14.22 74.8406 14.368 75.0086 14.48C75.1846 14.584 75.4126 14.672 75.6926 14.744C75.9806 14.808 76.2926 14.876 76.6286 14.948C76.9726 15.02 77.3126 15.112 77.6486 15.224C77.9926 15.328 78.3046 15.472 78.5846 15.656C78.8646 15.832 79.0886 16.068 79.2566 16.364C79.4326 16.652 79.5206 17.016 79.5206 17.456C79.5206 17.944 79.3806 18.396 79.1006 18.812C78.8286 19.22 78.4166 19.548 77.8646 19.796C77.3206 20.044 76.6326 20.168 75.8006 20.168ZM84.0889 20V13.484H81.5089V11.6H89.0329V13.484H86.4649V20H84.0889ZM90.2882 20L93.9962 11.6H96.3362L100.056 20H97.5842L94.6802 12.764H95.6162L92.7122 20H90.2882ZM92.3162 18.368L92.9282 16.616H97.0322L97.6442 18.368H92.3162ZM102.53 20V11.6H106.37C107.138 11.6 107.798 11.724 108.35 11.972C108.91 12.22 109.342 12.58 109.646 13.052C109.95 13.516 110.102 14.068 110.102 14.708C110.102 15.34 109.95 15.888 109.646 16.352C109.342 16.808 108.91 17.16 108.35 17.408C107.798 17.648 107.138 17.768 106.37 17.768H103.85L104.906 16.772V20H102.53ZM107.726 20L105.638 16.94H108.17L110.27 20H107.726ZM104.906 17.024L103.85 15.932H106.226C106.722 15.932 107.09 15.824 107.33 15.608C107.578 15.392 107.702 15.092 107.702 14.708C107.702 14.316 107.578 14.012 107.33 13.796C107.09 13.58 106.722 13.472 106.226 13.472H103.85L104.906 12.38V17.024ZM114.883 20V13.484H112.303V11.6H119.827V13.484H117.259V20H114.883ZM124.697 14.852H128.597V16.628H124.697V14.852ZM124.865 18.164H129.257V20H122.513V11.6H129.101V13.436H124.865V18.164ZM132.375 20V11.6H136.347C137.275 11.6 138.091 11.772 138.795 12.116C139.499 12.46 140.047 12.944 140.439 13.568C140.839 14.192 141.039 14.936 141.039 15.8C141.039 16.656 140.839 17.4 140.439 18.032C140.047 18.656 139.499 19.14 138.795 19.484C138.091 19.828 137.275 20 136.347 20H132.375ZM134.751 18.104H136.251C136.731 18.104 137.147 18.016 137.499 17.84C137.859 17.656 138.139 17.392 138.339 17.048C138.539 16.696 138.639 16.28 138.639 15.8C138.639 15.312 138.539 14.896 138.339 14.552C138.139 14.208 137.859 13.948 137.499 13.772C137.147 13.588 136.731 13.496 136.251 13.496H134.751V18.104Z" fill="#21222A"/>
</g>
<defs>
<filter id="filter0_d_503_166" x="0" y="0" width="176" height="47" filterUnits="userSpaceOnUse" color-interpolation-filters="sRGB">
<feFlood flood-opacity="0" result="BackgroundImageFix"/>
<feColorMatrix in="SourceAlpha" type="matrix" values="0 0 0 0 0 0 0 0 0 0 0 0 0 0 0 0 0 0 127 0" result="hardAlpha"/>
<feOffset dy="8"/>
<feGaussianBlur stdDeviation="4"/>
<feComposite in2="hardAlpha" operator="out"/>
<feColorMatrix type="matrix" values="0 0 0 0 0 0 0 0 0 0 0 0 0 0 0 0 0 0 0.25 0"/>
<feBlend mode="normal" in2="BackgroundImageFix" result="effect1_dropShadow_503_166"/>
<feBlend mode="normal" in="SourceGraphic" in2="effect1_dropShadow_503_166" result="shape"/>
</filter>
</defs>
</svg>
