<svg width="176" height="47" viewBox="0 0 176 47" fill="none" xmlns="http://www.w3.org/2000/svg">
<g filter="url(#filter0_d_503_163)">
<path d="M8 0H168L160.432 15.5L168 31H8L16.1081 15.5L8 0Z" fill="#FF6746"/>
<path d="M34.076 20.168C33.404 20.168 32.784 20.06 32.216 19.844C31.648 19.628 31.152 19.324 30.728 18.932C30.312 18.532 29.988 18.068 29.756 17.54C29.524 17.012 29.408 16.432 29.408 15.8C29.408 15.168 29.524 14.588 29.756 14.06C29.988 13.532 30.312 13.072 30.728 12.68C31.152 12.28 31.648 11.972 32.216 11.756C32.784 11.54 33.404 11.432 34.076 11.432C34.756 11.432 35.376 11.54 35.936 11.756C36.504 11.972 36.996 12.28 37.412 12.68C37.828 13.072 38.152 13.532 38.384 14.06C38.624 14.588 38.744 15.168 38.744 15.8C38.744 16.432 38.624 17.016 38.384 17.552C38.152 18.08 37.828 18.54 37.412 18.932C36.996 19.324 36.504 19.628 35.936 19.844C35.376 20.06 34.756 20.168 34.076 20.168ZM34.076 18.2C34.396 18.2 34.692 18.144 34.964 18.032C35.244 17.92 35.484 17.76 35.684 17.552C35.892 17.336 36.052 17.08 36.164 16.784C36.284 16.488 36.344 16.16 36.344 15.8C36.344 15.432 36.284 15.104 36.164 14.816C36.052 14.52 35.892 14.268 35.684 14.06C35.484 13.844 35.244 13.68 34.964 13.568C34.692 13.456 34.396 13.4 34.076 13.4C33.756 13.4 33.456 13.456 33.176 13.568C32.904 13.68 32.664 13.844 32.456 14.06C32.256 14.268 32.096 14.52 31.976 14.816C31.864 15.104 31.808 15.432 31.808 15.8C31.808 16.16 31.864 16.488 31.976 16.784C32.096 17.08 32.256 17.336 32.456 17.552C32.664 17.76 32.904 17.92 33.176 18.032C33.456 18.144 33.756 18.2 34.076 18.2ZM45.6644 20.168C44.4244 20.168 43.4564 19.828 42.7604 19.148C42.0644 18.468 41.7164 17.504 41.7164 16.256V11.6H44.0924V16.184C44.0924 16.904 44.2324 17.42 44.5124 17.732C44.8004 18.044 45.1924 18.2 45.6884 18.2C46.1844 18.2 46.5724 18.044 46.8524 17.732C47.1324 17.42 47.2724 16.904 47.2724 16.184V11.6H49.6124V16.256C49.6124 17.504 49.2644 18.468 48.5684 19.148C47.8724 19.828 46.9044 20.168 45.6644 20.168ZM54.6811 20V13.484H52.1011V11.6H59.6251V13.484H57.0571V20H54.6811ZM71.8385 20.168C71.1665 20.168 70.5465 20.06 69.9785 19.844C69.4105 19.628 68.9145 19.324 68.4905 18.932C68.0745 18.532 67.7505 18.068 67.5185 17.54C67.2865 17.012 67.1705 16.432 67.1705 15.8C67.1705 15.168 67.2865 14.588 67.5185 14.06C67.7505 13.532 68.0745 13.072 68.4905 12.68C68.9145 12.28 69.4105 11.972 69.9785 11.756C70.5465 11.54 71.1665 11.432 71.8385 11.432C72.5185 11.432 73.1385 11.54 73.6985 11.756C74.2665 11.972 74.7585 12.28 75.1745 12.68C75.5905 13.072 75.9145 13.532 76.1465 14.06C76.3865 14.588 76.5065 15.168 76.5065 15.8C76.5065 16.432 76.3865 17.016 76.1465 17.552C75.9145 18.08 75.5905 18.54 75.1745 18.932C74.7585 19.324 74.2665 19.628 73.6985 19.844C73.1385 20.06 72.5185 20.168 71.8385 20.168ZM71.8385 18.2C72.1585 18.2 72.4545 18.144 72.7265 18.032C73.0065 17.92 73.2465 17.76 73.4465 17.552C73.6545 17.336 73.8145 17.08 73.9265 16.784C74.0465 16.488 74.1065 16.16 74.1065 15.8C74.1065 15.432 74.0465 15.104 73.9265 14.816C73.8145 14.52 73.6545 14.268 73.4465 14.06C73.2465 13.844 73.0065 13.68 72.7265 13.568C72.4545 13.456 72.1585 13.4 71.8385 13.4C71.5185 13.4 71.2185 13.456 70.9385 13.568C70.6665 13.68 70.4265 13.844 70.2185 14.06C70.0185 14.268 69.8585 14.52 69.7385 14.816C69.6265 15.104 69.5705 15.432 69.5705 15.8C69.5705 16.16 69.6265 16.488 69.7385 16.784C69.8585 17.08 70.0185 17.336 70.2185 17.552C70.4265 17.76 70.6665 17.92 70.9385 18.032C71.2185 18.144 71.5185 18.2 71.8385 18.2ZM81.7589 15.284H85.6349V17.12H81.7589V15.284ZM81.9269 20H79.5509V11.6H86.1389V13.436H81.9269V20ZM96.5503 15.284H100.426V17.12H96.5503V15.284ZM96.7183 20H94.3423V11.6H100.93V13.436H96.7183V20ZM107.718 20.168C106.478 20.168 105.51 19.828 104.814 19.148C104.118 18.468 103.77 17.504 103.77 16.256V11.6H106.146V16.184C106.146 16.904 106.286 17.42 106.566 17.732C106.854 18.044 107.246 18.2 107.742 18.2C108.238 18.2 108.626 18.044 108.906 17.732C109.186 17.42 109.326 16.904 109.326 16.184V11.6H111.666V16.256C111.666 17.504 111.318 18.468 110.622 19.148C109.926 19.828 108.958 20.168 107.718 20.168ZM115.075 20V11.6H117.031L121.663 17.192H120.739V11.6H123.067V20H121.111L116.479 14.408H117.403V20H115.075ZM126.543 20V11.6H130.515C131.443 11.6 132.259 11.772 132.963 12.116C133.667 12.46 134.215 12.944 134.607 13.568C135.007 14.192 135.207 14.936 135.207 15.8C135.207 16.656 135.007 17.4 134.607 18.032C134.215 18.656 133.667 19.14 132.963 19.484C132.259 19.828 131.443 20 130.515 20H126.543ZM128.919 18.104H130.419C130.899 18.104 131.315 18.016 131.667 17.84C132.027 17.656 132.307 17.392 132.507 17.048C132.707 16.696 132.807 16.28 132.807 15.8C132.807 15.312 132.707 14.896 132.507 14.552C132.307 14.208 132.027 13.948 131.667 13.772C131.315 13.588 130.899 13.496 130.419 13.496H128.919V18.104ZM141.209 20.168C140.521 20.168 139.857 20.084 139.217 19.916C138.585 19.74 138.069 19.516 137.669 19.244L138.449 17.492C138.825 17.732 139.257 17.932 139.745 18.092C140.241 18.244 140.733 18.32 141.221 18.32C141.549 18.32 141.813 18.292 142.013 18.236C142.213 18.172 142.357 18.092 142.445 17.996C142.541 17.892 142.589 17.772 142.589 17.636C142.589 17.444 142.501 17.292 142.325 17.18C142.149 17.068 141.921 16.976 141.641 16.904C141.361 16.832 141.049 16.76 140.705 16.688C140.369 16.616 140.029 16.524 139.685 16.412C139.349 16.3 139.041 16.156 138.761 15.98C138.481 15.796 138.253 15.56 138.077 15.272C137.901 14.976 137.813 14.604 137.813 14.156C137.813 13.652 137.949 13.196 138.221 12.788C138.501 12.38 138.917 12.052 139.469 11.804C140.021 11.556 140.709 11.432 141.533 11.432C142.085 11.432 142.625 11.496 143.153 11.624C143.689 11.744 144.165 11.924 144.581 12.164L143.849 13.928C143.449 13.712 143.053 13.552 142.661 13.448C142.269 13.336 141.889 13.28 141.521 13.28C141.193 13.28 140.929 13.316 140.729 13.388C140.529 13.452 140.385 13.54 140.297 13.652C140.209 13.764 140.165 13.892 140.165 14.036C140.165 14.22 140.249 14.368 140.417 14.48C140.593 14.584 140.821 14.672 141.101 14.744C141.389 14.808 141.701 14.876 142.037 14.948C142.381 15.02 142.721 15.112 143.057 15.224C143.401 15.328 143.713 15.472 143.993 15.656C144.273 15.832 144.497 16.068 144.665 16.364C144.841 16.652 144.929 17.016 144.929 17.456C144.929 17.944 144.789 18.396 144.509 18.812C144.237 19.22 143.825 19.548 143.273 19.796C142.729 20.044 142.041 20.168 141.209 20.168Z" fill="#21222A"/>
</g>
<defs>
<filter id="filter0_d_503_163" x="0" y="0" width="176" height="47" filterUnits="userSpaceOnUse" color-interpolation-filters="sRGB">
<feFlood flood-opacity="0" result="BackgroundImageFix"/>
<feColorMatrix in="SourceAlpha" type="matrix" values="0 0 0 0 0 0 0 0 0 0 0 0 0 0 0 0 0 0 127 0" result="hardAlpha"/>
<feOffset dy="8"/>
<feGaussianBlur stdDeviation="4"/>
<feComposite in2="hardAlpha" operator="out"/>
<feColorMatrix type="matrix" values="0 0 0 0 0 0 0 0 0 0 0 0 0 0 0 0 0 0 0.25 0"/>
<feBlend mode="normal" in2="BackgroundImageFix" result="effect1_dropShadow_503_163"/>
<feBlend mode="normal" in="SourceGraphic" in2="effect1_dropShadow_503_163" result="shape"/>
</filter>
</defs>
</svg>
