<svg width="56" height="50" viewBox="0 0 56 50" fill="none" xmlns="http://www.w3.org/2000/svg">
<g clip-path="url(#clip0_303_5740)">
<path d="M28.0292 46.9024L20.4941 18.592L28.0292 1.60445L35.5643 18.592L28.0292 46.9024Z" stroke="#101118" stroke-width="2" stroke-miterlimit="10"/>
<path d="M28.0293 1.60445V46.9024" stroke="#101118" stroke-width="2" stroke-miterlimit="10"/>
<path d="M30.647 46.9876L38.7147 22.0105L46.4901 28.4021L30.647 46.9876Z" stroke="#101118" stroke-width="2" stroke-miterlimit="10"/>
<path d="M33.7456 47.2822L49.3484 30.8382L54.8439 35.3569L33.7456 47.2822Z" stroke="#101118" stroke-width="2" stroke-miterlimit="10"/>
<path d="M36.396 36.7649L39.6179 26.7715L42.7294 29.332L36.396 36.7649Z" fill="#101118"/>
<path d="M25.3464 46.9876L17.2852 22.0105L9.50977 28.4021L25.3464 46.9876Z" stroke="#101118" stroke-width="2" stroke-miterlimit="10"/>
<path d="M22.2482 47.2822L6.65182 30.8382L1.1499 35.3569L22.2482 47.2822Z" stroke="#101118" stroke-width="2" stroke-miterlimit="10"/>
<path d="M19.604 36.7649L16.3756 26.7715L13.2642 29.332L19.604 36.7649Z" fill="#101118"/>
</g>
<defs>
<clipPath id="clip0_303_5740">
<rect width="56" height="50" fill="white"/>
</clipPath>
</defs>
</svg>
