<?xml version="1.0" encoding="UTF-8" standalone="no"?>
<svg
   width="691"
   height="239"
   viewBox="0 0 691 239"
   fill="none"
   version="1.1"
   id="svg131"
   sodipodi:docname="youre-in-image-text.svg"
   inkscape:version="1.3 (0e150ed, 2023-07-21)"
   xmlns:inkscape="http://www.inkscape.org/namespaces/inkscape"
   xmlns:sodipodi="http://sodipodi.sourceforge.net/DTD/sodipodi-0.dtd"
   xmlns="http://www.w3.org/2000/svg"
   xmlns:svg="http://www.w3.org/2000/svg">
  <sodipodi:namedview
     id="namedview131"
     pagecolor="#ffffff"
     bordercolor="#000000"
     borderopacity="0.25"
     inkscape:showpageshadow="2"
     inkscape:pageopacity="0.0"
     inkscape:pagecheckerboard="0"
     inkscape:deskcolor="#d1d1d1"
     inkscape:zoom="0.9874477"
     inkscape:cx="345.33475"
     inkscape:cy="119.5"
     inkscape:window-width="1360"
     inkscape:window-height="987"
     inkscape:window-x="0"
     inkscape:window-y="25"
     inkscape:window-maximized="0"
     inkscape:current-layer="svg131" />
  <g
     clip-path="url(#clip0_303_8269)"
     id="g128">
    <path
       d="M343.941 33.5378C345.02 33.5378 345.895 32.6633 345.895 31.5847C345.895 30.506 345.02 29.6316 343.941 29.6316C342.862 29.6316 341.987 30.506 341.987 31.5847C341.987 32.6633 342.862 33.5378 343.941 33.5378Z"
       fill="#A59073"
       id="path1" />
    <path
       d="M325.931 34.327C327.01 34.327 327.885 33.4525 327.885 32.3739C327.885 31.2952 327.01 30.4208 325.931 30.4208C324.852 30.4208 323.977 31.2952 323.977 32.3739C323.977 33.4525 324.852 34.327 325.931 34.327Z"
       fill="#A59073"
       id="path2" />
    <path
       d="M308.057 36.6775C309.136 36.6775 310.011 35.8031 310.011 34.7244C310.011 33.6457 309.136 32.7713 308.057 32.7713C306.978 32.7713 306.104 33.6457 306.104 34.7244C306.104 35.8031 306.978 36.6775 308.057 36.6775Z"
       fill="#A59073"
       id="path3" />
    <path
       d="M290.456 40.578C291.535 40.578 292.41 39.7036 292.41 38.6249C292.41 37.5463 291.535 36.6718 290.456 36.6718C289.377 36.6718 288.502 37.5463 288.502 38.6249C288.502 39.7036 289.377 40.578 290.456 40.578Z"
       fill="#A59073"
       id="path4" />
    <path
       d="M273.264 46.0002C274.343 46.0002 275.218 45.1257 275.218 44.0471C275.218 42.9684 274.343 42.094 273.264 42.094C272.185 42.094 271.31 42.9684 271.31 44.0471C271.31 45.1257 272.185 46.0002 273.264 46.0002Z"
       fill="#A59073"
       id="path5" />
    <path
       d="M256.611 52.8928C257.69 52.8928 258.565 52.0184 258.565 50.9397C258.565 49.8611 257.69 48.9866 256.611 48.9866C255.532 48.9866 254.657 49.8611 254.657 50.9397C254.657 52.0184 255.532 52.8928 256.611 52.8928Z"
       fill="#A59073"
       id="path6" />
    <path
       d="M240.617 61.2162C241.696 61.2162 242.571 60.3418 242.571 59.2631C242.571 58.1845 241.696 57.31 240.617 57.31C239.538 57.31 238.664 58.1845 238.664 59.2631C238.664 60.3418 239.538 61.2162 240.617 61.2162Z"
       fill="#A59073"
       id="path7" />
    <path
       d="M225.413 70.8966C226.492 70.8966 227.367 70.0222 227.367 68.9435C227.367 67.8648 226.492 66.9904 225.413 66.9904C224.334 66.9904 223.459 67.8648 223.459 68.9435C223.459 70.0222 224.334 70.8966 225.413 70.8966Z"
       fill="#A59073"
       id="path8" />
    <path
       d="M211.112 81.8715C212.191 81.8715 213.065 80.997 213.065 79.9184C213.065 78.8397 212.191 77.9653 211.112 77.9653C210.032 77.9653 209.158 78.8397 209.158 79.9184C209.158 80.997 210.032 81.8715 211.112 81.8715Z"
       fill="#A59073"
       id="path9" />
    <path
       d="M197.821 94.0443C198.901 94.0443 199.775 93.1699 199.775 92.0912C199.775 91.0125 198.901 90.1381 197.821 90.1381C196.742 90.1381 195.868 91.0125 195.868 92.0912C195.868 93.1699 196.742 94.0443 197.821 94.0443Z"
       fill="#A59073"
       id="path10" />
    <path
       d="M185.638 107.33C186.717 107.33 187.592 106.456 187.592 105.377C187.592 104.298 186.717 103.424 185.638 103.424C184.559 103.424 183.685 104.298 183.685 105.377C183.685 106.456 184.559 107.33 185.638 107.33Z"
       fill="#A59073"
       id="path11" />
    <path
       d="M174.665 121.626C175.744 121.626 176.619 120.752 176.619 119.673C176.619 118.594 175.744 117.72 174.665 117.72C173.586 117.72 172.711 118.594 172.711 119.673C172.711 120.752 173.586 121.626 174.665 121.626Z"
       fill="#A59073"
       id="path12" />
    <path
       d="M164.982 136.831C166.061 136.831 166.935 135.957 166.935 134.878C166.935 133.799 166.061 132.925 164.982 132.925C163.903 132.925 163.028 133.799 163.028 134.878C163.028 135.957 163.903 136.831 164.982 136.831Z"
       fill="#A59073"
       id="path13" />
    <path
       d="M156.655 152.814C157.735 152.814 158.609 151.939 158.609 150.86C158.609 149.782 157.735 148.907 156.655 148.907C155.576 148.907 154.702 149.782 154.702 150.86C154.702 151.939 155.576 152.814 156.655 152.814Z"
       fill="#A59073"
       id="path14" />
    <path
       d="M149.755 169.466C150.834 169.466 151.708 168.592 151.708 167.513C151.708 166.434 150.834 165.56 149.755 165.56C148.676 165.56 147.801 166.434 147.801 167.513C147.801 168.592 148.676 169.466 149.755 169.466Z"
       fill="#A59073"
       id="path15" />
    <path
       d="M144.336 186.652C145.415 186.652 146.29 185.778 146.29 184.699C146.29 183.62 145.415 182.746 144.336 182.746C143.257 182.746 142.382 183.62 142.382 184.699C142.382 185.778 143.257 186.652 144.336 186.652Z"
       fill="#A59073"
       id="path16" />
    <path
       d="M140.434 204.247C141.513 204.247 142.388 203.373 142.388 202.294C142.388 201.215 141.513 200.341 140.434 200.341C139.355 200.341 138.48 201.215 138.48 202.294C138.48 203.373 139.355 204.247 140.434 204.247Z"
       fill="#A59073"
       id="path17" />
    <path
       d="M138.077 222.115C139.156 222.115 140.031 221.24 140.031 220.162C140.031 219.083 139.156 218.208 138.077 218.208C136.998 218.208 136.124 219.083 136.124 220.162C136.124 221.24 136.998 222.115 138.077 222.115Z"
       fill="#A59073"
       id="path18" />
    <path
       d="M549.81 222.115C550.889 222.115 551.764 221.24 551.764 220.162C551.764 219.083 550.889 218.208 549.81 218.208C548.731 218.208 547.856 219.083 547.856 220.162C547.856 221.24 548.731 222.115 549.81 222.115Z"
       fill="#A59073"
       id="path19" />
    <path
       d="M547.453 204.247C548.532 204.247 549.407 203.373 549.407 202.294C549.407 201.215 548.532 200.341 547.453 200.341C546.374 200.341 545.5 201.215 545.5 202.294C545.5 203.373 546.374 204.247 547.453 204.247Z"
       fill="#A59073"
       id="path20" />
    <path
       d="M543.551 186.652C544.63 186.652 545.505 185.778 545.505 184.699C545.505 183.62 544.63 182.746 543.551 182.746C542.472 182.746 541.598 183.62 541.598 184.699C541.598 185.778 542.472 186.652 543.551 186.652Z"
       fill="#A59073"
       id="path21" />
    <path
       d="M538.133 169.466C539.212 169.466 540.087 168.592 540.087 167.513C540.087 166.434 539.212 165.56 538.133 165.56C537.054 165.56 536.179 166.434 536.179 167.513C536.179 168.592 537.054 169.466 538.133 169.466Z"
       fill="#A59073"
       id="path22" />
    <path
       d="M531.232 152.814C532.311 152.814 533.186 151.939 533.186 150.86C533.186 149.782 532.311 148.907 531.232 148.907C530.153 148.907 529.278 149.782 529.278 150.86C529.278 151.939 530.153 152.814 531.232 152.814Z"
       fill="#A59073"
       id="path23" />
    <path
       d="M522.906 136.831C523.985 136.831 524.86 135.957 524.86 134.878C524.86 133.799 523.985 132.925 522.906 132.925C521.827 132.925 520.952 133.799 520.952 134.878C520.952 135.957 521.827 136.831 522.906 136.831Z"
       fill="#A59073"
       id="path24" />
    <path
       d="M513.222 121.626C514.301 121.626 515.176 120.752 515.176 119.673C515.176 118.594 514.301 117.72 513.222 117.72C512.143 117.72 511.269 118.594 511.269 119.673C511.269 120.752 512.143 121.626 513.222 121.626Z"
       fill="#A59073"
       id="path25" />
    <path
       d="M502.249 107.33C503.328 107.33 504.203 106.456 504.203 105.377C504.203 104.298 503.328 103.424 502.249 103.424C501.17 103.424 500.295 104.298 500.295 105.377C500.295 106.456 501.17 107.33 502.249 107.33Z"
       fill="#A59073"
       id="path26" />
    <path
       d="M490.066 94.0443C491.145 94.0443 492.02 93.1699 492.02 92.0912C492.02 91.0125 491.145 90.1381 490.066 90.1381C488.987 90.1381 488.112 91.0125 488.112 92.0912C488.112 93.1699 488.987 94.0443 490.066 94.0443Z"
       fill="#A59073"
       id="path27" />
    <path
       d="M476.776 81.8715C477.855 81.8715 478.73 80.997 478.73 79.9184C478.73 78.8397 477.855 77.9653 476.776 77.9653C475.697 77.9653 474.822 78.8397 474.822 79.9184C474.822 80.997 475.697 81.8715 476.776 81.8715Z"
       fill="#A59073"
       id="path28" />
    <path
       d="M462.475 70.8966C463.554 70.8966 464.429 70.0222 464.429 68.9435C464.429 67.8648 463.554 66.9904 462.475 66.9904C461.396 66.9904 460.521 67.8648 460.521 68.9435C460.521 70.0222 461.396 70.8966 462.475 70.8966Z"
       fill="#A59073"
       id="path29" />
    <path
       d="M447.27 61.2162C448.349 61.2162 449.224 60.3418 449.224 59.2631C449.224 58.1845 448.349 57.31 447.27 57.31C446.191 57.31 445.316 58.1845 445.316 59.2631C445.316 60.3418 446.191 61.2162 447.27 61.2162Z"
       fill="#A59073"
       id="path30" />
    <path
       d="M431.277 52.8928C432.356 52.8928 433.23 52.0184 433.23 50.9397C433.23 49.8611 432.356 48.9866 431.277 48.9866C430.197 48.9866 429.323 49.8611 429.323 50.9397C429.323 52.0184 430.197 52.8928 431.277 52.8928Z"
       fill="#A59073"
       id="path31" />
    <path
       d="M414.624 46.0002C415.703 46.0002 416.578 45.1257 416.578 44.0471C416.578 42.9684 415.703 42.094 414.624 42.094C413.545 42.094 412.67 42.9684 412.67 44.0471C412.67 45.1257 413.545 46.0002 414.624 46.0002Z"
       fill="#A59073"
       id="path32" />
    <path
       d="M397.426 40.578C398.505 40.578 399.38 39.7036 399.38 38.6249C399.38 37.5463 398.505 36.6718 397.426 36.6718C396.347 36.6718 395.472 37.5463 395.472 38.6249C395.472 39.7036 396.347 40.578 397.426 40.578Z"
       fill="#A59073"
       id="path33" />
    <path
       d="M379.831 36.6775C380.91 36.6775 381.785 35.8031 381.785 34.7244C381.785 33.6457 380.91 32.7713 379.831 32.7713C378.752 32.7713 377.877 33.6457 377.877 34.7244C377.877 35.8031 378.752 36.6775 379.831 36.6775Z"
       fill="#A59073"
       id="path34" />
    <path
       d="M361.957 34.327C363.036 34.327 363.911 33.4525 363.911 32.3739C363.911 31.2952 363.036 30.4208 361.957 30.4208C360.878 30.4208 360.003 31.2952 360.003 32.3739C360.003 33.4525 360.878 34.327 361.957 34.327Z"
       fill="#A59073"
       id="path35" />
    <path
       d="M573.551 238.591C573.551 111.827 470.75 9.06718 343.947 9.06718C217.143 9.06718 114.336 111.827 114.336 238.591"
       stroke="#A59073"
       stroke-miterlimit="10"
       id="path36" />
    <path
       d="M-88 238.591H160.376C160.376 137.245 242.565 55.0844 343.947 55.0844C445.328 55.0844 527.518 137.245 527.518 238.591H778"
       stroke="#A59073"
       stroke-miterlimit="10"
       id="path37" />
    <path
       d="M581.463 238.285C581.463 106.842 474.868 0.283875 343.373 0.283875C211.879 0.283875 105.289 106.842 105.289 238.285"
       stroke="#A59073"
       stroke-miterlimit="10"
       id="path38" />
    <path
       d="M518.714 239C518.714 142.509 440.466 64.2935 343.946 64.2935C247.427 64.2935 169.179 142.514 169.179 239"
       stroke="#A59073"
       stroke-miterlimit="10"
       id="path39" />
    <g
       clip-path="url(#clip1_303_8269)"
       id="g108">
      <path
         d="M415.071 183.708L409.516 193.384C408.109 195.837 405.495 197.355 402.68 197.355H284.722C281.894 197.355 279.293 195.837 277.886 193.384L272.332 183.708H415.071Z"
         stroke="#A59073"
         stroke-linejoin="round"
         id="path40" />
      <path
         d="M290.276 183.708C288.064 181.507 286.707 178.434 286.707 175.032C286.707 168.568 291.733 163.244 298.079 162.839C298.343 162.788 298.607 162.788 298.884 162.788C301.673 162.788 304.237 163.724 306.285 165.331C307.14 165.976 307.906 166.773 308.547 167.633C310.118 169.694 311.048 172.262 311.048 175.032C311.048 177.144 310.52 179.129 309.59 180.85C309.025 181.899 308.308 182.861 307.466 183.695"
         stroke="#A59073"
         stroke-miterlimit="10"
         id="path41" />
      <path
         d="M308.56 167.633C310.13 169.694 311.06 172.262 311.06 175.032C311.06 177.144 310.532 179.129 309.603 180.85"
         stroke="#A59073"
         stroke-miterlimit="10"
         id="path42" />
      <path
         d="M325.273 180.141C323.538 177.27 322.986 173.691 324.041 170.225C324.33 169.289 324.707 168.404 325.185 167.595"
         stroke="#A59073"
         stroke-miterlimit="10"
         id="path43" />
      <path
         d="M306.298 165.331C307.278 163.509 308.723 161.979 310.445 160.853C310.972 160.512 311.488 160.234 312.066 159.968C313.586 159.298 315.258 158.918 317.017 158.918C319.09 158.918 321.038 159.449 322.747 160.36V160.385C324.67 161.397 326.291 162.953 327.409 164.812"
         stroke="#A59073"
         stroke-miterlimit="10"
         id="path44" />
      <path
         d="M298.08 162.839C297.979 162.358 297.941 161.853 297.941 161.359C297.941 157.4 301.133 154.201 305.079 154.201C306.7 154.201 308.17 154.757 309.364 155.668"
         stroke="#A59073"
         stroke-miterlimit="10"
         id="path45" />
      <path
         d="M324.343 143.994C318.135 142.514 311.777 146.106 309.892 152.329C309.553 153.454 309.389 154.555 309.364 155.655C309.314 157.476 309.703 159.247 310.432 160.853"
         stroke="#A59073"
         stroke-miterlimit="10"
         id="path46" />
      <path
         d="M342.853 183.708C344.285 182.658 345.466 181.292 346.346 179.661C346.723 178.94 347.062 178.194 347.301 177.384C348.608 173.096 347.439 168.619 344.637 165.52C343.205 163.965 341.382 162.738 339.208 162.068C338.731 161.928 338.253 161.802 337.776 161.726H337.751C335.778 161.372 333.818 161.511 331.995 162.131C330.286 162.662 328.716 163.573 327.396 164.787C326.806 165.343 326.253 165.963 325.75 166.659C325.536 166.95 325.348 167.253 325.159 167.569C324.682 168.379 324.305 169.264 324.016 170.2C322.973 173.678 323.513 177.245 325.247 180.116C326.052 181.482 327.158 182.709 328.49 183.683"
         stroke="#A59073"
         stroke-miterlimit="10"
         id="path47" />
      <path
         d="M359.679 170.832H359.704C359.817 170.39 359.93 169.96 360.005 169.517C360.458 167.025 360.068 164.509 359.025 162.346C358.862 162.004 358.686 161.65 358.472 161.334V161.309C357.027 158.906 354.765 157.046 351.9 156.174C350.154 155.642 348.369 155.529 346.673 155.807C345.366 155.997 344.134 156.401 342.991 157.046C340.993 158.083 339.322 159.715 338.228 161.802H338.203"
         stroke="#A59073"
         stroke-miterlimit="10"
         id="path48" />
      <path
         d="M367.281 157.615C369.204 155.2 371.994 153.619 375.035 153.201C376.718 152.936 378.515 153.062 380.275 153.581C386.696 155.541 390.315 162.396 388.367 168.859C388.267 169.15 388.179 169.454 388.053 169.719"
         stroke="#A59073"
         stroke-miterlimit="10"
         id="path49" />
      <path
         d="M370.059 175.537C369.87 175.436 369.707 175.322 369.531 175.183"
         stroke="#A59073"
         stroke-miterlimit="10"
         id="path50" />
      <path
         d="M366.276 171.541C366.226 171.465 366.176 171.402 366.163 171.326"
         stroke="#A59073"
         stroke-miterlimit="10"
         id="path51" />
      <path
         d="M341.91 148.496C341.96 148.332 342.011 148.142 342.048 147.965C343.996 141.502 350.807 137.86 357.228 139.82C360.722 140.895 363.411 143.412 364.793 146.549"
         stroke="#A59073"
         stroke-miterlimit="10"
         id="path52" />
      <path
         d="M332.008 162.143C333.843 161.524 335.791 161.372 337.764 161.739"
         stroke="#A59073"
         stroke-miterlimit="10"
         id="path53" />
      <path
         d="M326.265 167.203C326.102 167.013 325.926 166.848 325.763 166.671"
         stroke="#A59073"
         stroke-miterlimit="10"
         id="path54" />
      <path
         d="M322.747 160.373V160.347C322.433 158.577 322.559 156.68 323.099 154.833C323.74 152.771 324.833 151.001 326.291 149.609C327.359 148.56 328.653 147.712 330.023 147.143C332.524 146.068 335.401 145.828 338.229 146.662C338.254 146.662 338.279 146.688 338.304 146.688C339.636 147.092 340.855 147.712 341.898 148.484C344.26 150.204 345.894 152.721 346.56 155.503"
         stroke="#A59073"
         stroke-miterlimit="10"
         id="path55" />
      <path
         d="M326.291 149.622C324.883 148.155 324.129 146.106 324.343 143.994C324.368 143.513 324.456 143.033 324.607 142.552C325.75 138.745 329.721 136.607 333.504 137.784C337.236 138.935 339.36 142.906 338.241 146.675"
         stroke="#A59073"
         stroke-miterlimit="10"
         id="path56" />
      <path
         d="M359.013 183.708C356.889 182.342 355.633 179.901 355.771 177.359C355.771 176.764 355.872 176.157 356.06 175.588C356.701 173.476 358.196 171.92 360.081 171.136H360.106C360.584 170.896 361.061 170.757 361.602 170.655C361.602 170.655 361.61 170.655 361.627 170.655C362.695 170.44 363.839 170.491 364.957 170.845C365.384 170.959 365.761 171.136 366.151 171.326C366.251 171.376 366.339 171.427 366.44 171.515C367.897 172.325 368.991 173.653 369.531 175.183C369.694 175.563 369.795 175.93 369.87 176.309V176.334C370.059 177.245 370.059 178.206 369.845 179.142C369.82 179.357 369.77 179.572 369.707 179.787C369.179 181.482 368.111 182.848 366.704 183.721"
         stroke="#A59073"
         stroke-miterlimit="10"
         id="path57" />
      <path
         d="M405.885 183.708C406.312 183.088 406.651 182.393 406.89 181.621C408.034 177.839 405.91 173.817 402.153 172.666C399.677 171.895 397.101 172.565 395.291 174.247C394.362 175.057 393.645 176.145 393.243 177.435C392.74 179.066 392.866 180.71 393.457 182.178C393.645 182.734 393.934 183.253 394.286 183.708"
         stroke="#A59073"
         stroke-miterlimit="10"
         id="path58" />
      <path
         d="M361.614 170.655C361.614 170.655 361.614 170.68 361.639 170.655"
         stroke="#A59073"
         stroke-miterlimit="10"
         id="path59" />
      <path
         d="M358.824 161.258V161.233C359.628 159.601 361.011 158.387 362.657 157.78C363.21 157.565 363.775 157.426 364.366 157.375C365.296 157.236 366.289 157.299 367.269 157.615C368.55 157.995 369.644 158.741 370.46 159.677C372.107 161.473 372.773 164.066 372.006 166.557C371.202 169.214 368.978 171.06 366.439 171.515C366.389 171.541 366.326 171.541 366.276 171.541"
         stroke="#A59073"
         stroke-miterlimit="10"
         id="path60" />
      <path
         d="M393.457 182.178C392.69 182.898 391.785 183.404 390.818 183.708"
         stroke="#A59073"
         stroke-miterlimit="10"
         id="path61" />
      <path
         d="M395.291 174.247C394.55 172.287 392.929 170.681 390.768 170.01C389.863 169.719 388.933 169.656 388.053 169.745C385.716 169.934 383.605 171.3 382.461 173.413"
         stroke="#A59073"
         stroke-miterlimit="10"
         id="path62" />
      <path
         d="M375.035 153.214C375.148 150.052 373.15 147.105 370.009 146.119C368.199 145.562 366.364 145.764 364.794 146.549C363.085 147.383 361.727 148.926 361.099 150.887C360.333 153.378 360.999 155.971 362.645 157.793"
         stroke="#A59073"
         stroke-miterlimit="10"
         id="path63" />
      <path
         d="M380.803 183.708C381.733 183.114 382.512 182.241 383.065 181.216C383.328 180.812 383.517 180.356 383.655 179.876C384.108 178.371 384.032 176.815 383.555 175.424C383.291 174.703 382.939 174.007 382.461 173.413C381.607 172.262 380.388 171.376 378.918 170.921C375.211 169.795 371.252 171.857 370.059 175.55C370.033 175.601 370.033 175.651 370.008 175.689C369.933 175.904 369.895 176.119 369.87 176.309V176.334"
         stroke="#A59073"
         stroke-miterlimit="10"
         id="path64" />
      <path
         d="M391.396 170.364C393.545 171.73 396.234 172.211 398.848 171.364C401.499 170.504 403.447 168.505 404.389 166.077C403.108 165.229 401.612 164.724 400.067 164.622C400.557 163.269 400.733 161.815 400.569 160.398C399.074 160.272 397.541 160.524 396.146 161.144C396.045 159.374 395.417 157.691 394.399 156.3C392.049 157.388 390.177 159.462 389.486 162.181C388.795 164.888 389.448 167.582 390.956 169.669L391.408 170.364H391.396Z"
         stroke="#A59073"
         stroke-miterlimit="10"
         id="path65" />
      <path
         d="M307.869 152.784C309.904 151.254 311.312 148.901 311.463 146.144C311.626 143.349 310.457 140.794 308.547 139.036C307.303 139.946 306.298 141.161 305.644 142.577C304.564 141.629 303.282 140.946 301.9 140.591C301.246 141.957 300.932 143.475 301.007 145.006C299.336 144.474 297.552 144.449 295.893 144.917C296.069 147.51 297.313 150.014 299.588 151.646C301.849 153.265 304.589 153.619 307.064 152.948L307.869 152.771V152.784Z"
         stroke="#A59073"
         stroke-miterlimit="10"
         id="path66" />
      <path
         d="M286.192 178.459C286.858 175.993 286.519 173.261 284.961 170.997C283.365 168.695 280.889 167.418 278.313 167.215C277.886 168.695 277.848 170.289 278.2 171.806C276.767 171.73 275.335 171.983 274.041 172.565C274.355 174.045 275.046 175.436 276.039 176.6C274.392 177.22 272.972 178.307 271.955 179.699C273.676 181.634 276.202 182.835 278.979 182.709C281.744 182.582 284.119 181.166 285.664 179.091L286.192 178.459Z"
         stroke="#A59073"
         stroke-miterlimit="10"
         id="path67" />
      <path
         d="M275.096 189.197H353.333"
         stroke="#A59073"
         stroke-linejoin="round"
         id="path68" />
      <path
         d="M409.517 193.384H386.948"
         stroke="#A59073"
         stroke-linejoin="round"
         id="path69" />
      <path
         d="M411.539 189.766H396.598"
         stroke="#A59073"
         stroke-linejoin="round"
         id="path70" />
      <path
         d="M346.547 167.734H340.578"
         stroke="#A59073"
         stroke-linejoin="round"
         id="path71" />
      <path
         d="M347.339 171.174H343.117"
         stroke="#A59073"
         stroke-linejoin="round"
         id="path72" />
      <path
         d="M347.339 176.802H343.117"
         stroke="#A59073"
         stroke-linejoin="round"
         id="path73" />
      <path
         d="M347.314 173.969H339.045"
         stroke="#A59073"
         stroke-linejoin="round"
         id="path74" />
      <path
         d="M364.806 146.549H354.54"
         stroke="#A59073"
         stroke-linejoin="round"
         id="path75" />
      <path
         d="M361.375 149.521H358.359"
         stroke="#A59073"
         stroke-linejoin="round"
         id="path76" />
      <path
         d="M360.37 153.366H356.55"
         stroke="#A59073"
         stroke-linejoin="round"
         id="path77" />
      <path
         d="M360.973 155.997H357.555"
         stroke="#A59073"
         stroke-linejoin="round"
         id="path78" />
      <path
         d="M387.312 159.639H379.471"
         stroke="#A59073"
         stroke-linejoin="round"
         id="path79" />
      <path
         d="M388.518 162.472H383.693"
         stroke="#A59073"
         stroke-linejoin="round"
         id="path80" />
      <path
         d="M388.581 165.28H383.09"
         stroke="#A59073"
         stroke-miterlimit="10"
         id="path81" />
      <path
         d="M309.653 179.914H305.871"
         stroke="#A59073"
         stroke-miterlimit="10"
         id="path82" />
      <path
         d="M310.558 177.03H308.158"
         stroke="#A59073"
         stroke-miterlimit="10"
         id="path83" />
      <path
         d="M310.796 173.349H306.335"
         stroke="#A59073"
         stroke-miterlimit="10"
         id="path84" />
      <path
         d="M309.414 169.441H303.583"
         stroke="#A59073"
         stroke-miterlimit="10"
         id="path85" />
      <path
         d="M391.635 169.846C392.828 170.605 394.311 170.858 395.756 170.402C397.227 169.934 398.295 168.821 398.822 167.481C398.106 167.013 397.289 166.735 396.435 166.671C396.711 165.925 396.799 165.116 396.711 164.331C395.882 164.256 395.04 164.395 394.273 164.736C394.211 163.762 393.871 162.826 393.306 162.055C392.012 162.662 390.969 163.8 390.592 165.305C390.215 166.798 390.566 168.29 391.408 169.441L391.66 169.821L391.635 169.846Z"
         stroke="#A59073"
         stroke-miterlimit="10"
         id="path86" />
      <path
         d="M408.549 121.632V125.199C411.539 127.602 413.286 131.232 413.286 135.09V145.764C413.286 154.593 418.614 162.169 426.217 165.407C428.629 166.431 430.225 168.784 430.225 171.414V185.719C430.225 188.666 428.026 191.145 425.123 191.486L417.119 192.422C414.782 192.701 413.022 194.686 413.022 197.051H455.898C455.898 194.686 454.139 192.688 451.801 192.422L443.797 191.486C440.894 191.145 438.695 188.666 438.695 185.719V171.414C438.695 168.771 440.291 166.431 442.704 165.407C450.306 162.169 455.634 154.593 455.634 145.764V135.09C455.634 131.245 457.381 127.602 460.372 125.199V121.632H408.536H408.549Z"
         stroke="#A59073"
         stroke-miterlimit="10"
         id="path87" />
      <path
         d="M442.704 165.394C450.306 162.156 455.634 154.58 455.634 145.752V135.077C455.634 131.232 457.381 127.59 460.372 125.186V121.632H453.31V125.199C450.319 127.602 448.572 131.232 448.572 135.09V145.764C448.572 154.593 443.244 162.169 435.642 165.407"
         stroke="#A59073"
         stroke-miterlimit="10"
         id="path88" />
      <path
         d="M460.372 125.199H433.53"
         stroke="#A59073"
         stroke-miterlimit="10"
         id="path89" />
      <path
         d="M455.911 130.979H450.13"
         stroke="#A59073"
         stroke-miterlimit="10"
         id="path90" />
      <path
         d="M454.993 136.19H449.213"
         stroke="#A59073"
         stroke-miterlimit="10"
         id="path91" />
      <path
         d="M454.993 141.249H449.213"
         stroke="#A59073"
         stroke-miterlimit="10"
         id="path92" />
      <path
         d="M454.993 146.005H449.213"
         stroke="#A59073"
         stroke-miterlimit="10"
         id="path93" />
      <path
         d="M454.993 151.519H447.994"
         stroke="#A59073"
         stroke-miterlimit="10"
         id="path94" />
      <path
         d="M452.706 156.73H445.707"
         stroke="#A59073"
         stroke-miterlimit="10"
         id="path95" />
      <path
         d="M448.446 161.625H441.447"
         stroke="#A59073"
         stroke-miterlimit="10"
         id="path96" />
      <path
         d="M439.775 189.362H433.982"
         stroke="#A59073"
         stroke-miterlimit="10"
         id="path97" />
      <path
         d="M226.628 121.632V125.199C229.619 127.602 231.366 131.232 231.366 135.09V145.764C231.366 154.593 236.694 162.169 244.296 165.407C246.709 166.431 248.305 168.784 248.305 171.414V185.719C248.305 188.666 246.106 191.145 243.203 191.486L235.199 192.422C232.861 192.701 231.102 194.686 231.102 197.051H273.978C273.978 194.686 272.218 192.688 269.881 192.422L261.877 191.486C258.974 191.145 256.775 188.666 256.775 185.719V171.414C256.775 168.771 258.371 166.431 260.783 165.407C268.386 162.169 273.714 154.593 273.714 145.764V135.09C273.714 131.245 275.461 127.602 278.451 125.199V121.632H226.628Z"
         stroke="#A59073"
         stroke-miterlimit="10"
         id="path98" />
      <path
         d="M260.783 165.394C268.386 162.156 273.714 154.58 273.714 145.752V135.077C273.714 131.232 275.461 127.59 278.451 125.186V121.632H271.389V125.199C268.398 127.602 266.652 131.232 266.652 135.09V145.764C266.652 154.593 261.324 162.169 253.721 165.407"
         stroke="#A59073"
         stroke-miterlimit="10"
         id="path99" />
      <path
         d="M278.464 125.199H251.61"
         stroke="#A59073"
         stroke-miterlimit="10"
         id="path100" />
      <path
         d="M273.99 130.979H268.21"
         stroke="#A59073"
         stroke-miterlimit="10"
         id="path101" />
      <path
         d="M273.085 136.19H267.292"
         stroke="#A59073"
         stroke-miterlimit="10"
         id="path102" />
      <path
         d="M273.085 141.249H267.292"
         stroke="#A59073"
         stroke-miterlimit="10"
         id="path103" />
      <path
         d="M273.085 146.005H267.292"
         stroke="#A59073"
         stroke-miterlimit="10"
         id="path104" />
      <path
         d="M273.086 151.519H266.074"
         stroke="#A59073"
         stroke-miterlimit="10"
         id="path105" />
      <path
         d="M270.799 156.73H263.799"
         stroke="#A59073"
         stroke-miterlimit="10"
         id="path106" />
      <path
         d="M266.539 161.625H259.527"
         stroke="#A59073"
         stroke-miterlimit="10"
         id="path107" />
      <path
         d="M257.855 189.362H252.075"
         stroke="#A59073"
         stroke-miterlimit="10"
         id="path108" />
    </g>
    <path
       d="M185 197H508"
       stroke="#A59073"
       id="path109" />
    <g
       clip-path="url(#clip2_303_8269)"
       id="g118">
      <path
         d="M622.102 116.743H584.202V242.63H622.102V116.743Z"
         stroke="#A59073"
         stroke-miterlimit="10"
         id="path110" />
      <path
         d="M568.064 127.069C572.95 127.069 576.911 123.106 576.911 118.218C576.911 113.331 572.95 109.368 568.064 109.368C563.178 109.368 559.217 113.331 559.217 118.218C559.217 123.106 563.178 127.069 568.064 127.069Z"
         stroke="#A59073"
         stroke-miterlimit="10"
         id="path111" />
      <path
         d="M622.205 116.743V118.133C622.205 126.599 629.067 133.465 637.53 133.465H638.306C646.768 133.465 653.631 126.599 653.631 118.133C653.631 109.668 646.768 102.802 638.306 102.802H609.426H596.574H567.694C559.232 102.802 552.37 109.668 552.37 118.133C552.37 126.599 559.232 133.465 567.694 133.465H568.47C576.933 133.465 583.795 126.599 583.795 118.133V116.743"
         stroke="#A59073"
         stroke-miterlimit="10"
         id="path112" />
      <path
         d="M637.936 127.069C642.822 127.069 646.783 123.106 646.783 118.218C646.783 113.331 642.822 109.368 637.936 109.368C633.05 109.368 629.089 113.331 629.089 118.218C629.089 123.106 633.05 127.069 637.936 127.069Z"
         stroke="#A59073"
         stroke-miterlimit="10"
         id="path113" />
      <path
         d="M596.271 129.915C598.163 129.915 599.7 131.453 599.7 133.346V242.63H592.841V133.346C592.841 131.453 594.379 129.915 596.271 129.915Z"
         stroke="#A59073"
         stroke-miterlimit="10"
         id="path114" />
      <path
         d="M610.032 129.915C611.924 129.915 613.462 131.453 613.462 133.346V242.63H606.603V133.346C606.603 131.453 608.14 129.915 610.032 129.915Z"
         stroke="#A59073"
         stroke-miterlimit="10"
         id="path115" />
      <path
         d="M584.202 109.612H622.541"
         stroke="#A59073"
         stroke-miterlimit="10"
         id="path116" />
      <path
         d="M585.21 93.8744H620.793C624.13 93.8744 626.843 96.5842 626.843 99.9262V102.725H579.161V99.9262C579.161 96.5879 581.87 93.8744 585.21 93.8744Z"
         stroke="#A59073"
         stroke-miterlimit="10"
         id="path117" />
      <path
         d="M619.333 86.3697H586.67V93.5121H619.333V86.3697Z"
         stroke="#A59073"
         stroke-miterlimit="10"
         id="path118" />
    </g>
    <g
       clip-path="url(#clip3_303_8269)"
       id="g127">
      <path
         d="M104.102 116.743H66.2017V242.63H104.102V116.743Z"
         stroke="#A59073"
         stroke-miterlimit="10"
         id="path119" />
      <path
         d="M50.064 127.069C54.95 127.069 58.9108 123.106 58.9108 118.218C58.9108 113.331 54.95 109.368 50.064 109.368C45.1781 109.368 41.2173 113.331 41.2173 118.218C41.2173 123.106 45.1781 127.069 50.064 127.069Z"
         stroke="#A59073"
         stroke-miterlimit="10"
         id="path120" />
      <path
         d="M104.205 116.743V118.133C104.205 126.599 111.067 133.465 119.53 133.465H120.306C128.768 133.465 135.631 126.599 135.631 118.133C135.631 109.668 128.768 102.802 120.306 102.802H91.4264H78.5738H49.6944C41.232 102.802 34.3696 109.668 34.3696 118.133C34.3696 126.599 41.232 133.465 49.6944 133.465H50.4704C58.9328 133.465 65.7952 126.599 65.7952 118.133V116.743"
         stroke="#A59073"
         stroke-miterlimit="10"
         id="path121" />
      <path
         d="M119.936 127.069C124.822 127.069 128.783 123.106 128.783 118.218C128.783 113.331 124.822 109.368 119.936 109.368C115.05 109.368 111.089 113.331 111.089 118.218C111.089 123.106 115.05 127.069 119.936 127.069Z"
         stroke="#A59073"
         stroke-miterlimit="10"
         id="path122" />
      <path
         d="M78.2706 129.915C80.1627 129.915 81.6999 131.453 81.6999 133.346V242.63H74.8413V133.346C74.8413 131.453 76.3786 129.915 78.2706 129.915Z"
         stroke="#A59073"
         stroke-miterlimit="10"
         id="path123" />
      <path
         d="M92.0323 129.915C93.9244 129.915 95.4617 131.453 95.4617 133.346V242.63H88.603V133.346C88.603 131.453 90.1403 129.915 92.0323 129.915Z"
         stroke="#A59073"
         stroke-miterlimit="10"
         id="path124" />
      <path
         d="M66.2017 109.612H104.541"
         stroke="#A59073"
         stroke-miterlimit="10"
         id="path125" />
      <path
         d="M67.2105 93.8744H102.793C106.13 93.8744 108.843 96.5842 108.843 99.9262V102.725H61.1611V99.9262C61.1611 96.5879 63.8699 93.8744 67.2105 93.8744Z"
         stroke="#A59073"
         stroke-miterlimit="10"
         id="path126" />
      <path
         d="M101.333 86.3697H68.6699V93.5121H101.333V86.3697Z"
         stroke="#A59073"
         stroke-miterlimit="10"
         id="path127" />
    </g>
  </g>
  <defs
     id="defs131">
    <clipPath
       id="clip0_303_8269">
      <rect
         width="691"
         height="239"
         fill="white"
         id="rect128" />
    </clipPath>
    <clipPath
       id="clip1_303_8269">
      <rect
         width="235"
         height="77"
         fill="white"
         transform="translate(226 121)"
         id="rect129" />
    </clipPath>
    <clipPath
       id="clip2_303_8269">
      <rect
         width="102"
         height="157"
         fill="white"
         transform="translate(552 86)"
         id="rect130" />
    </clipPath>
    <clipPath
       id="clip3_303_8269">
      <rect
         width="102"
         height="157"
         fill="white"
         transform="translate(34 86)"
         id="rect131" />
    </clipPath>
  </defs>
  <text
     xml:space="preserve"
     style="font-size:32px;line-height:0;letter-spacing:2px;fill:#000000;fill-opacity:0.916335;stroke-width:1;stroke-dasharray:none"
     x="251.15253"
     y="234.94914"
     id="text131"><tspan
       sodipodi:role="line"
       id="tspan131"
       x="251.15253"
       y="234.94914"
       style="font-style:normal;font-variant:normal;font-weight:600;font-stretch:normal;line-height:0;font-family:Montserrat;-inkscape-font-specification:'Montserrat Semi-Bold';letter-spacing:2px;stroke-width:1;stroke-dasharray:none">YOU'RE IN</tspan></text>
</svg>
