<svg width="240" height="215" viewBox="0 0 240 215" fill="none" xmlns="http://www.w3.org/2000/svg">
<g clip-path="url(#clip0_196_1521)">
<mask id="mask0_196_1521" style="mask-type:alpha" maskUnits="userSpaceOnUse" x="-108" y="-108" width="456" height="431">
<g opacity="0.5">
<rect x="0.178223" y="-107" width="151.573" height="151.573" transform="rotate(45 0.178223 -107)" stroke="#CEBEA7" stroke-miterlimit="10"/>
<rect x="0.178223" y="-90.0217" width="127.562" height="127.562" transform="rotate(45 0.178223 -90.0217)" stroke="#CEBEA7" stroke-miterlimit="10"/>
<rect x="0.178223" y="-55.6155" width="78.9042" height="78.9042" transform="rotate(45 0.178223 -55.6155)" stroke="#CEBEA7" stroke-miterlimit="10"/>
<rect x="0.178223" y="-71.4236" width="101.26" height="101.26" transform="rotate(45 0.178223 -71.4236)" stroke="#CEBEA7" stroke-miterlimit="10"/>
<rect x="0.178223" y="-107" width="151.573" height="151.573" transform="rotate(45 0.178223 -107)" stroke="#CEBEA7" stroke-miterlimit="10"/>
<rect x="0.178223" y="-90.0217" width="127.562" height="127.562" transform="rotate(45 0.178223 -90.0217)" stroke="#CEBEA7" stroke-miterlimit="10"/>
<rect x="0.178223" y="-55.6155" width="78.9042" height="78.9042" transform="rotate(45 0.178223 -55.6155)" stroke="#CEBEA7" stroke-miterlimit="10"/>
<rect x="0.178223" y="-71.4236" width="101.26" height="101.26" transform="rotate(45 0.178223 -71.4236)" stroke="#CEBEA7" stroke-miterlimit="10"/>
</g>
<g opacity="0.5">
<rect x="0.178223" y="107.819" width="151.573" height="151.573" transform="rotate(45 0.178223 107.819)" stroke="#CEBEA7" stroke-miterlimit="10"/>
<rect x="0.178223" y="124.797" width="127.562" height="127.562" transform="rotate(45 0.178223 124.797)" stroke="#CEBEA7" stroke-miterlimit="10"/>
<rect x="0.178223" y="159.204" width="78.9042" height="78.9042" transform="rotate(45 0.178223 159.204)" stroke="#CEBEA7" stroke-miterlimit="10"/>
<rect x="0.178223" y="143.396" width="101.26" height="101.26" transform="rotate(45 0.178223 143.396)" stroke="#CEBEA7" stroke-miterlimit="10"/>
<rect x="0.178223" y="107.819" width="151.573" height="151.573" transform="rotate(45 0.178223 107.819)" stroke="#CEBEA7" stroke-miterlimit="10"/>
<rect x="0.178223" y="124.797" width="127.562" height="127.562" transform="rotate(45 0.178223 124.797)" stroke="#CEBEA7" stroke-miterlimit="10"/>
<rect x="0.178223" y="159.204" width="78.9042" height="78.9042" transform="rotate(45 0.178223 159.204)" stroke="#CEBEA7" stroke-miterlimit="10"/>
<rect x="0.178223" y="143.396" width="101.26" height="101.26" transform="rotate(45 0.178223 143.396)" stroke="#CEBEA7" stroke-miterlimit="10"/>
</g>
<g opacity="0.5">
<rect x="120.033" y="-107" width="151.573" height="151.573" transform="rotate(45 120.033 -107)" stroke="#CEBEA7" stroke-miterlimit="10"/>
<rect x="120.033" y="-90.0217" width="127.562" height="127.562" transform="rotate(45 120.033 -90.0217)" stroke="#CEBEA7" stroke-miterlimit="10"/>
<rect x="120.033" y="-55.6155" width="78.9042" height="78.9042" transform="rotate(45 120.033 -55.6155)" stroke="#CEBEA7" stroke-miterlimit="10"/>
<rect x="120.033" y="-71.4236" width="101.26" height="101.26" transform="rotate(45 120.033 -71.4236)" stroke="#CEBEA7" stroke-miterlimit="10"/>
<rect x="120.033" y="-107" width="151.573" height="151.573" transform="rotate(45 120.033 -107)" stroke="#CEBEA7" stroke-miterlimit="10"/>
<rect x="120.033" y="-90.0217" width="127.562" height="127.562" transform="rotate(45 120.033 -90.0217)" stroke="#CEBEA7" stroke-miterlimit="10"/>
<rect x="120.033" y="-55.6155" width="78.9042" height="78.9042" transform="rotate(45 120.033 -55.6155)" stroke="#CEBEA7" stroke-miterlimit="10"/>
<rect x="120.033" y="-71.4236" width="101.26" height="101.26" transform="rotate(45 120.033 -71.4236)" stroke="#CEBEA7" stroke-miterlimit="10"/>
</g>
<g opacity="0.5">
<rect x="120.033" y="107.819" width="151.573" height="151.573" transform="rotate(45 120.033 107.819)" stroke="#CEBEA7" stroke-miterlimit="10"/>
<rect x="120.033" y="124.797" width="127.562" height="127.562" transform="rotate(45 120.033 124.797)" stroke="#CEBEA7" stroke-miterlimit="10"/>
<rect x="120.033" y="159.204" width="78.9042" height="78.9042" transform="rotate(45 120.033 159.204)" stroke="#CEBEA7" stroke-miterlimit="10"/>
<rect x="120.033" y="143.396" width="101.26" height="101.26" transform="rotate(45 120.033 143.396)" stroke="#CEBEA7" stroke-miterlimit="10"/>
<rect x="120.033" y="107.819" width="151.573" height="151.573" transform="rotate(45 120.033 107.819)" stroke="#CEBEA7" stroke-miterlimit="10"/>
<rect x="120.033" y="124.797" width="127.562" height="127.562" transform="rotate(45 120.033 124.797)" stroke="#CEBEA7" stroke-miterlimit="10"/>
<rect x="120.033" y="159.204" width="78.9042" height="78.9042" transform="rotate(45 120.033 159.204)" stroke="#CEBEA7" stroke-miterlimit="10"/>
<rect x="120.033" y="143.396" width="101.26" height="101.26" transform="rotate(45 120.033 143.396)" stroke="#CEBEA7" stroke-miterlimit="10"/>
</g>
<g opacity="0.5">
<rect x="239.888" y="-107" width="151.573" height="151.573" transform="rotate(45 239.888 -107)" stroke="#CEBEA7" stroke-miterlimit="10"/>
<rect x="239.888" y="-90.0217" width="127.562" height="127.562" transform="rotate(45 239.888 -90.0217)" stroke="#CEBEA7" stroke-miterlimit="10"/>
<rect x="239.888" y="-55.6155" width="78.9042" height="78.9042" transform="rotate(45 239.888 -55.6155)" stroke="#CEBEA7" stroke-miterlimit="10"/>
<rect x="239.888" y="-71.4236" width="101.26" height="101.26" transform="rotate(45 239.888 -71.4236)" stroke="#CEBEA7" stroke-miterlimit="10"/>
<rect x="239.888" y="-107" width="151.573" height="151.573" transform="rotate(45 239.888 -107)" stroke="#CEBEA7" stroke-miterlimit="10"/>
<rect x="239.888" y="-90.0217" width="127.562" height="127.562" transform="rotate(45 239.888 -90.0217)" stroke="#CEBEA7" stroke-miterlimit="10"/>
<rect x="239.888" y="-55.6155" width="78.9042" height="78.9042" transform="rotate(45 239.888 -55.6155)" stroke="#CEBEA7" stroke-miterlimit="10"/>
<rect x="239.888" y="-71.4236" width="101.26" height="101.26" transform="rotate(45 239.888 -71.4236)" stroke="#CEBEA7" stroke-miterlimit="10"/>
</g>
<g opacity="0.5">
<rect x="239.888" y="107.819" width="151.573" height="151.573" transform="rotate(45 239.888 107.819)" stroke="#CEBEA7" stroke-miterlimit="10"/>
<rect x="239.888" y="124.797" width="127.562" height="127.562" transform="rotate(45 239.888 124.797)" stroke="#CEBEA7" stroke-miterlimit="10"/>
<rect x="239.888" y="159.204" width="78.9042" height="78.9042" transform="rotate(45 239.888 159.204)" stroke="#CEBEA7" stroke-miterlimit="10"/>
<rect x="239.888" y="143.396" width="101.26" height="101.26" transform="rotate(45 239.888 143.396)" stroke="#CEBEA7" stroke-miterlimit="10"/>
<rect x="239.888" y="107.819" width="151.573" height="151.573" transform="rotate(45 239.888 107.819)" stroke="#CEBEA7" stroke-miterlimit="10"/>
<rect x="239.888" y="124.797" width="127.562" height="127.562" transform="rotate(45 239.888 124.797)" stroke="#CEBEA7" stroke-miterlimit="10"/>
<rect x="239.888" y="159.204" width="78.9042" height="78.9042" transform="rotate(45 239.888 159.204)" stroke="#CEBEA7" stroke-miterlimit="10"/>
<rect x="239.888" y="143.396" width="101.26" height="101.26" transform="rotate(45 239.888 143.396)" stroke="#CEBEA7" stroke-miterlimit="10"/>
</g>
</mask>
<g mask="url(#mask0_196_1521)">
<rect width="240" height="215" fill="#D9D9D9"/>
</g>
</g>
<defs>
<clipPath id="clip0_196_1521">
<rect width="240" height="215" fill="white"/>
</clipPath>
</defs>
</svg>
